<?xml version="1.0" standalone="no"?>
<!DOCTYPE svg PUBLIC "-//W3C//DTD SVG 1.1//EN" "http://www.w3.org/Graphics/SVG/1.1/DTD/svg11.dtd" >
<svg xmlns="http://www.w3.org/2000/svg" xmlns:xlink="http://www.w3.org/1999/xlink" version="1.1">
<metadata>
Created by FontForge 20141024 at Wed Mar  4 02:46:16 2015
 By System Administrator
Chalet (C) 2000 House Industries/Brand Design Co. Inc. House Industries is a registered trademark of House Industries/ Brand Design Co., Inc. 
</metadata>
<defs>
<font id="Chalet-LondonNineteenEighty" horiz-adv-x="200" >
  <font-face 
    font-family="Chalet"
    font-weight="550"
    font-stretch="normal"
    units-per-em="1000"
    panose-1="2 0 6 3 3 0 0 2 0 4"
    ascent="800"
    descent="-200"
    x-height="515"
    cap-height="694"
    bbox="-47 -253 1200 959"
    underline-thickness="8"
    underline-position="-47"
    unicode-range="U+0020-FB02"
  />
<missing-glyph horiz-adv-x="500" 
 />
    <glyph glyph-name="fi" unicode="fi" horiz-adv-x="748" 
d="M673 0h-84v515h84v-515zM407 477q0 29 -9.5 54t-27 43t-42 28t-54.5 10q-60 0 -96.5 -38t-36.5 -97v-137h347v-82h-347v-258h-85v477q0 48 16.5 87.5t45.5 68.5t69 45t87 16t87 -16t69 -45t45.5 -68.5t16.5 -87.5v-47h-85v47zM673 593h-84v101h84v-101z" />
    <glyph glyph-name="fl" unicode="fl" horiz-adv-x="747" 
d="M407 477q0 29 -9.5 54t-27 43t-42 28t-54.5 10q-60 0 -96.5 -38t-36.5 -97v-137h347v-82h-347v-258h-85v477q0 48 16.5 87.5t45.5 68.5t69 45t87 16t87 -16t69 -45t45.5 -68.5t16.5 -87.5v-47h-85v47zM672 0h-84v744h84v-744z" />
    <glyph glyph-name=".notdef" horiz-adv-x="500" 
 />
    <glyph glyph-name=".null" horiz-adv-x="0" 
 />
    <glyph glyph-name="nonmarkingreturn" horiz-adv-x="289" 
 />
    <glyph glyph-name="space" unicode=" " horiz-adv-x="289" 
 />
    <glyph glyph-name="exclam" unicode="!" horiz-adv-x="271" 
d="M183 0h-95v99h95v-99zM178 177h-85v517h85v-517z" />
    <glyph glyph-name="quotedbl" unicode="&#x22;" horiz-adv-x="317" 
d="M112 445h-52l-14 249h80zM257 445h-52l-14 249h80z" />
    <glyph glyph-name="numbersign" unicode="#" horiz-adv-x="532" 
d="M214 448l-29 -205h133l30 205h-134zM399 243h85l-11 -79h-85l-19 -127h-81l18 127h-133l-19 -127h-81l19 127h-86l12 79h85l30 205h-85l11 79h86l18 130h82l-19 -130h133l19 130h82l-19 -130h85l-12 -79h-85z" />
    <glyph glyph-name="dollar" unicode="$" horiz-adv-x="493" 
d="M376 221q0 13 -3.5 25.5t-14.5 23t-32 20t-56 18.5v-180q56 6 81 31.5t25 61.5zM213 568q-44 -6 -68 -28t-24 -55q0 -26 19.5 -45t72.5 -34v162zM461 223q0 -41 -17 -75t-49 -58q-48 -38 -125 -44v-58h-57v58q-68 6 -118 44q-72 57 -72 153h84q0 -46 27.5 -76.5
t78.5 -38.5v192q-35 8 -67 20.5t-56 31.5t-38.5 46t-14.5 65q0 69 48 114t128 53v61h57v-62q41 -4 73.5 -19.5t55 -39.5t34.5 -55.5t12 -68.5h-85q0 43 -23 69t-67 33v-175q45 -10 80.5 -23.5t60 -33t37.5 -47t13 -66.5z" />
    <glyph glyph-name="percent" unicode="%" horiz-adv-x="810" 
d="M617 265q-19 0 -36 -7.5t-29.5 -20.5t-20 -31t-7.5 -38t7.5 -37.5t20 -31t29.5 -21t36 -7.5t36 7.5t29.5 21t20 31t7.5 37.5t-7.5 38t-20 31t-29.5 20.5t-36 7.5zM193 429q19 0 36 7.5t29.5 20.5t19.5 31t7 38t-7 37.5t-19.5 31t-29.5 21t-36 7.5t-36 -7.5t-29.5 -21
t-20 -31t-7.5 -37.5t7.5 -38t20 -31t29.5 -20.5t36 -7.5zM617 0q-35 0 -65.5 13t-53.5 36t-36 53.5t-13 65.5t13 65.5t36 53.5t53.5 36.5t65.5 13.5t65.5 -13.5t53.5 -36.5t36 -53.5t13 -65.5t-13 -65.5t-36 -53.5t-53.5 -36t-65.5 -13zM555 694h81l-381 -694h-81zM193 694
q34 0 65 -13t53.5 -36t36 -53.5t13.5 -65.5t-13.5 -65.5t-36 -53.5t-53.5 -36t-65 -13q-35 0 -65.5 13t-53.5 36t-36.5 53.5t-13.5 65.5t13.5 65.5t36.5 53.5t53.5 36t65.5 13z" />
    <glyph glyph-name="ampersand" unicode="&#x26;" horiz-adv-x="646" 
d="M247 349q-61 -37 -87 -72.5t-26 -78.5q0 -26 12 -49.5t33 -41.5t50 -28.5t64 -10.5q44 0 79.5 14.5t60.5 40.5zM216 555q0 -36 34 -76l23 -28q28 16 46.5 30t29 27t15 25.5t4.5 26.5q0 32 -20.5 52.5t-54.5 20.5q-32 0 -54.5 -21.5t-22.5 -56.5zM644 0h-109l-51 62
q-37 -35 -85.5 -54.5t-105.5 -19.5q-49 0 -93.5 15.5t-78 43.5t-53.5 66.5t-20 84.5q0 40 12 71.5t32 57t47.5 45.5t57.5 38l-12 15q-26 31 -41 63.5t-15 66.5q0 33 12.5 61.5t35 49.5t52.5 33t65 12t64 -11t50 -30.5t32.5 -47t11.5 -60.5q0 -59 -36 -98t-94 -73l155 -188
q5 17 7.5 34.5t2.5 36.5v53h82v-53q0 -39 -8 -75t-25 -67z" />
    <glyph glyph-name="quotesingle" unicode="'" horiz-adv-x="172" 
d="M112 445h-52l-14 249h80z" />
    <glyph glyph-name="parenleft" unicode="(" horiz-adv-x="314" 
d="M302 790q-71 -94 -111.5 -209t-40.5 -244t40.5 -244.5t111.5 -208.5h-75q-38 39 -69 90.5t-53.5 110.5t-34.5 123t-12 129q0 64 12 128.5t34.5 123.5t53.5 110.5t69 90.5h75z" />
    <glyph glyph-name="parenright" unicode=")" horiz-adv-x="314" 
d="M87 790q38 -39 69 -90.5t53.5 -110.5t34.5 -123.5t12 -128.5q0 -65 -12 -129t-34.5 -123t-53.5 -110.5t-69 -90.5h-74q71 93 111 208.5t40 244.5t-40 244t-111 209h74z" />
    <glyph glyph-name="asterisk" unicode="*" horiz-adv-x="347" 
d="M220 531l53 -86l-51 -29l-48 89l-49 -89l-50 29l52 86l-101 -2v58l101 -2l-52 87l50 28l48 -88l49 88l51 -28l-53 -87l101 2v-57z" />
    <glyph glyph-name="plus" unicode="+" horiz-adv-x="509" 
d="M297 235v-172h-84v172h-171v82h171v172h84v-172h171v-82h-171z" />
    <glyph glyph-name="comma" unicode="," 
d="M150 103v-126q0 -26 -8 -45t-21 -31.5t-30 -20t-34 -8.5v43q24 4 37 20t13 42v23h-57v103h100z" />
    <glyph glyph-name="hyphen" unicode="-" horiz-adv-x="359" 
d="M44 235v82h271v-82h-271z" />
    <glyph glyph-name="hyphen" unicode="&#xad;" horiz-adv-x="359" 
d="M44 235v82h271v-82h-271z" />
    <glyph glyph-name="period" unicode="." 
d="M150 0h-100v103h100v-103z" />
    <glyph glyph-name="slash" unicode="/" horiz-adv-x="274" 
d="M80 0h-84l210 744h85z" />
    <glyph glyph-name="zero" unicode="0" horiz-adv-x="601" 
d="M300 633q-77 0 -123.5 -73t-46.5 -210q0 -138 46.5 -211t123.5 -73q78 0 124 73t46 211q0 137 -46 210t-124 73zM300 -12q-53 0 -99.5 22.5t-81 67.5t-54 113t-19.5 159t19.5 158.5t54 112.5t81 67.5t99.5 22.5q54 0 100.5 -22.5t81 -67.5t54 -112.5t19.5 -158.5
t-19.5 -159t-54 -113t-81 -67.5t-100.5 -22.5z" />
    <glyph glyph-name="one" unicode="1" horiz-adv-x="337" 
d="M29 554v66q45 2 75 18.5t34 55.5h78v-694h-85v554h-102z" />
    <glyph glyph-name="two" unicode="2" horiz-adv-x="558" 
d="M295 257q-35 -20 -65 -39.5t-52.5 -40.5t-36 -44.5t-16.5 -50.5h383v-82h-473v43q0 58 18 101t48.5 76t70 59t82.5 49q52 28 85.5 50.5t53 42.5t27 41t7.5 48q0 21 -7 43t-23.5 39.5t-43.5 29t-67 11.5q-39 0 -67 -13t-46.5 -35.5t-27.5 -52.5t-10 -63h-87q0 49 16 93
t46 77t74 52.5t102 19.5q53 0 95 -16t71 -43t44.5 -63.5t15.5 -78.5q0 -48 -15 -83t-43 -63.5t-68.5 -53.5t-90.5 -53z" />
    <glyph glyph-name="three" unicode="3" horiz-adv-x="570" 
d="M529 204q0 -45 -17 -84.5t-49.5 -68.5t-78.5 -46t-103 -17q-60 0 -105 17t-75 46t-46.5 68t-19.5 84h88q3 -29 12.5 -54t28 -43t47.5 -28.5t70 -10.5q37 0 67 10.5t51.5 29t33 43.5t11.5 54q0 24 -7 47t-26 41t-52.5 29t-85.5 11h-32v78q97 0 137.5 29t40.5 82
q0 51 -33.5 81.5t-99.5 30.5q-38 0 -65 -11.5t-44 -31t-25 -44t-8 -51.5h-88q0 47 17 87t47 68.5t72.5 44.5t93.5 16q52 0 93 -14.5t68.5 -40t42 -60.5t14.5 -75q0 -49 -22 -85.5t-64 -56.5q54 -20 82.5 -64.5t28.5 -110.5z" />
    <glyph glyph-name="four" unicode="4" horiz-adv-x="555" 
d="M373 572l-249 -327h249v327zM524 245v-82h-66v-163h-85v163h-350v75l345 456h90v-449h66z" />
    <glyph glyph-name="five" unicode="5" horiz-adv-x="546" 
d="M510 226q0 -55 -19 -99t-52 -75t-76 -47.5t-91 -16.5q-54 0 -96.5 16.5t-71.5 43.5t-46 62t-20 72h88q3 -21 13.5 -41.5t28.5 -36.5t44 -25.5t60 -9.5t62.5 11.5t49 32.5t31.5 50t11 63t-10.5 62.5t-30 49.5t-46 32.5t-59.5 11.5q-42 0 -80 -22t-62 -57l-75 29l46 362
h360v-81h-285l-26 -193q25 19 58.5 30.5t71.5 11.5q49 0 90 -17.5t70 -49t45.5 -75t16.5 -94.5z" />
    <glyph glyph-name="six" unicode="6" horiz-adv-x="570" 
d="M450 230q0 35 -10 65t-29 52t-46.5 34.5t-62.5 12.5q-32 0 -60.5 -12.5t-50 -34t-34 -51.5t-12.5 -66t11.5 -66t32 -52t49.5 -34t64 -12q68 0 108 45t40 119zM535 230q0 -52 -18 -97.5t-51 -77.5q-32 -32 -75 -49.5t-92 -17.5q-54 0 -99.5 20t-78.5 58q-75 85 -75 248
q0 180 63 284q70 113 197 113q106 0 167 -72q38 -45 50 -111h-87q-5 18 -13.5 37t-24 34t-38 24.5t-54.5 9.5q-38 0 -68.5 -18.5t-52 -51.5t-35 -78.5t-17.5 -99.5q31 43 78 65.5t92 22.5q49 0 91.5 -17.5t74.5 -50.5q66 -68 66 -175z" />
    <glyph glyph-name="seven" unicode="7" horiz-adv-x="508" 
d="M483 617q-60 -47 -108.5 -113.5t-83.5 -146.5t-56 -170.5t-26 -186.5h-86q4 87 22.5 174.5t49 167.5t73.5 149.5t96 120.5h-347v82h466v-77z" />
    <glyph glyph-name="eight" unicode="8" horiz-adv-x="554" 
d="M434 203q0 30 -11.5 55t-32 43.5t-49.5 28.5t-64 10t-63.5 -10t-49.5 -28.5t-32.5 -43.5t-11.5 -55q0 -34 13.5 -59.5t35.5 -43t50.5 -26t57.5 -8.5t57.5 8.5t50.5 26t35.5 43t13.5 59.5zM148 525q0 -27 11 -47t29.5 -34t41.5 -21t47 -7t47 7t41.5 21t29.5 34t11 47
q0 48 -36 78t-93 30t-93 -30t-36 -78zM519 202q0 -44 -17.5 -83t-49.5 -68t-76.5 -46t-98.5 -17t-98.5 17t-76.5 46t-49.5 68t-17.5 83q0 59 28.5 105t76.5 74q-35 26 -56 63t-21 82q0 38 15.5 72t44 59t67.5 39.5t87 14.5t87.5 -14.5t67.5 -39.5t43.5 -59t15.5 -72
q0 -45 -21 -82t-56 -63q48 -28 76.5 -74t28.5 -105z" />
    <glyph glyph-name="nine" unicode="9" horiz-adv-x="570" 
d="M428 469q0 35 -11.5 65t-31.5 52t-48.5 34.5t-62.5 12.5q-68 0 -109.5 -45t-41.5 -119q0 -36 10.5 -66t30 -51.5t47.5 -34t63 -12.5t63.5 12.5t48.5 34t31 51.5t11 66zM524 371q0 -90 -16 -161t-48 -120.5t-79.5 -75.5t-110.5 -26q-47 0 -84 13t-64.5 36t-45 53t-24.5 65
h87q10 -34 41.5 -60.5t90.5 -26.5q48 0 79.5 22.5t51 58t28.5 79t12 85.5q-11 -19 -29 -34.5t-40.5 -27t-48 -17.5t-50.5 -6q-51 0 -94.5 18t-75 50t-49 76t-17.5 97t17.5 97.5t49 76.5t74.5 50t94 18q65 0 116 -29t83 -82q29 -47 40.5 -101t11.5 -128z" />
    <glyph glyph-name="colon" unicode=":" horiz-adv-x="227" 
d="M163 0h-100v103h100v-103zM163 394h-100v103h100v-103z" />
    <glyph glyph-name="semicolon" unicode=";" horiz-adv-x="227" 
d="M163 103v-126q0 -26 -8 -45t-21 -31.5t-29.5 -20t-34.5 -8.5v43q24 4 37 20t13 42v23h-57v103h100zM163 394h-100v103h100v-103z" />
    <glyph glyph-name="semicolon" unicode="&#x37e;" horiz-adv-x="227" 
d="M163 103v-126q0 -26 -8 -45t-21 -31.5t-29.5 -20t-34.5 -8.5v43q24 4 37 20t13 42v23h-57v103h100zM163 394h-100v103h100v-103z" />
    <glyph glyph-name="less" unicode="&#x3c;" horiz-adv-x="450" 
d="M418 144v-89l-387 175v92l387 174v-89l-304 -131v-1z" />
    <glyph glyph-name="equal" unicode="=" horiz-adv-x="484" 
d="M440 138h-396v81h396v-81zM44 333v82h396v-82h-396z" />
    <glyph glyph-name="greater" unicode="&#x3e;" horiz-adv-x="454" 
d="M340 275q-22 10 -48 21q-22 9 -49 20.5t-56 24.5l-152 66v89l388 -174v-92l-388 -175v89z" />
    <glyph glyph-name="question" unicode="?" horiz-adv-x="522" 
d="M289 0h-96v99h96v-99zM476 517q0 -36 -10 -63.5t-26 -48.5t-35.5 -37t-37.5 -29q-20 -14 -35.5 -27t-26.5 -28t-17 -34t-6 -46v-27h-82v27q0 41 9.5 70t25.5 51t37.5 39.5t44.5 35.5q18 14 31.5 26t23.5 25t15 28t5 35q0 54 -33.5 85t-101.5 31q-66 0 -103.5 -34
t-37.5 -90h-85q0 41 15.5 78.5t45 65.5t71 44.5t94.5 16.5q52 0 93 -15t69 -41.5t42.5 -62t14.5 -75.5z" />
    <glyph glyph-name="at" unicode="@" horiz-adv-x="756" 
d="M439 360q5 20 6 40t-4 36.5t-16 26.5t-30 10q-20 0 -39.5 -10.5t-36.5 -28.5t-30.5 -41t-19.5 -48q-12 -52 4.5 -81t49.5 -29q22 0 41 11t33.5 28.5t25 40t16.5 45.5zM494 289q-8 -29 3 -43t33 -14t42.5 12t36.5 34.5t25.5 53.5t9.5 70q0 48 -16.5 91t-48.5 75.5
t-78.5 52t-107.5 19.5q-59 0 -110.5 -24t-89 -65t-59 -94.5t-21.5 -111.5q0 -62 20 -115t57 -91t88 -59.5t114 -21.5q66 0 123.5 24.5t96.5 66.5h92q-48 -76 -129.5 -118.5t-182.5 -42.5q-77 0 -142 26t-112 73.5t-73.5 113t-26.5 144.5t29 146t77.5 116t113 76.5
t135.5 27.5q72 0 132 -23t103 -64t67 -98.5t24 -126.5q0 -55 -17.5 -99t-44.5 -74.5t-60.5 -46.5t-65.5 -16q-41 0 -65 18.5t-33 46.5q-25 -30 -58 -47.5t-67 -17.5q-31 0 -57 14.5t-41.5 41t-19.5 63.5t9 82q12 39 33 72t48 57t57.5 37.5t60.5 13.5q31 0 54 -14t34 -39
l12 40h72q-7 -20 -19 -59.5t-25 -80.5q-15 -48 -32 -102z" />
    <glyph glyph-name="A" unicode="A" horiz-adv-x="627" 
d="M314 590l-113 -309h224zM172 202l-74 -202h-92l262 694h96l257 -694h-95l-73 202h-281z" />
    <glyph glyph-name="B" unicode="B" horiz-adv-x="640" 
d="M513 202q0 65 -36 92.5t-94 27.5h-217v-240h220q56 0 91.5 31.5t35.5 88.5zM166 403h217q19 0 39 5.5t36 18t26 32.5t10 49q0 56 -31 80.5t-83 24.5h-214v-210zM598 203q0 -43 -15 -80t-43 -64.5t-68 -43t-90 -15.5h-301v694h299q46 0 83 -13.5t62.5 -38t39.5 -59
t14 -76.5q0 -39 -21 -78.5t-66 -62.5q57 -20 81.5 -64.5t24.5 -98.5z" />
    <glyph glyph-name="C" unicode="C" horiz-adv-x="727" 
d="M702 220q-18 -53 -49 -96t-72 -73t-91 -46.5t-106 -16.5q-71 0 -134 28.5t-109.5 77.5t-73.5 115t-27 141t27 140.5t73.5 114.5t109.5 77.5t134 28.5q59 0 110 -17t91.5 -47.5t70 -73t46.5 -93.5h-89q-29 66 -86.5 108t-142.5 42q-54 0 -101 -22t-82.5 -60.5t-56 -89.5
t-20.5 -108t20.5 -108t56 -89.5t82.5 -60.5t101 -22q77 0 137 40.5t92 109.5h89z" />
    <glyph glyph-name="D" unicode="D" horiz-adv-x="692" 
d="M166 613v-531h172q48 0 89.5 15.5t72.5 47.5t48.5 82.5t17.5 120.5q0 71 -18 121.5t-48.5 82.5t-72 46.5t-89.5 14.5h-172zM81 694h257q72 0 130 -24t99.5 -68.5t63.5 -108.5t22 -145t-22 -145.5t-63.5 -109.5t-99.5 -69t-130 -24h-257v694z" />
    <glyph glyph-name="E" unicode="E" horiz-adv-x="620" 
d="M577 694v-81h-411v-210h371v-81h-371v-240h411v-82h-496v694h496z" />
    <glyph glyph-name="F" unicode="F" horiz-adv-x="585" 
d="M166 403h348v-79h-348v-324h-85v694h473v-81h-388v-210z" />
    <glyph glyph-name="G" unicode="G" horiz-adv-x="777" 
d="M722 378v-378h-82v118q-38 -57 -102 -93.5t-153 -36.5q-72 0 -134.5 28.5t-109.5 77.5t-74 115t-27 141t27 140.5t74 114.5t109.5 77.5t134.5 28.5q55 0 105 -16t91 -46t72.5 -73t50.5 -96h-90q-33 70 -92.5 109.5t-136.5 39.5q-54 0 -101.5 -22t-83 -60.5t-56 -89
t-20.5 -107.5t20.5 -108t56 -89.5t83 -60.5t101.5 -22q55 0 100 19t77 50.5t51.5 72t25.5 84.5h-249v82h332z" />
    <glyph glyph-name="H" unicode="H" horiz-adv-x="712" 
d="M630 694v-694h-84v323h-380v-323h-85v694h85v-289h380v289h84z" />
    <glyph glyph-name="I" unicode="I" horiz-adv-x="255" 
d="M170 0h-85v694h85v-694z" />
    <glyph glyph-name="J" unicode="J" horiz-adv-x="544" 
d="M479 235q0 -54 -15.5 -99.5t-45 -78.5t-73 -51t-98.5 -18q-50 0 -92.5 18t-73.5 49.5t-48.5 73.5t-17.5 91h84q0 -30 10 -57.5t29 -48t46.5 -32.5t62.5 -12q75 0 111.5 45t36.5 120v459h84v-459z" />
    <glyph glyph-name="K" unicode="K" horiz-adv-x="649" 
d="M166 245v-245h-85v694h85v-339l349 339h119l-288 -276l300 -418h-106l-255 359z" />
    <glyph glyph-name="L" unicode="L" horiz-adv-x="548" 
d="M523 0h-442v694h85v-612h357v-82z" />
    <glyph glyph-name="M" unicode="M" horiz-adv-x="829" 
d="M748 0h-85v581l-203 -581h-91l-203 581v-581h-85v694h130l204 -585l204 585h129v-694z" />
    <glyph glyph-name="N" unicode="N" horiz-adv-x="715" 
d="M633 0h-94l-373 565v-565h-85v694h95l373 -564v564h84v-694z" />
    <glyph glyph-name="O" unicode="O" horiz-adv-x="768" 
d="M384 70q54 0 101 21.5t82.5 59.5t56 89t20.5 110q0 60 -20 111t-55 88.5t-82.5 59t-102.5 21.5q-54 0 -101 -21.5t-82.5 -59.5t-56 -89t-20.5 -110t20.5 -110.5t56 -89t82.5 -59t101 -21.5zM384 711q72 0 135 -27.5t109.5 -76t73 -114.5t26.5 -143q0 -76 -27 -142
t-73.5 -115t-109.5 -77t-134 -28t-134 28t-109.5 77t-73.5 115t-27 142t27 141.5t73.5 114.5t109.5 77t134 28z" />
    <glyph glyph-name="P" unicode="P" horiz-adv-x="622" 
d="M166 613v-258h207q61 0 100 30.5t39 98.5t-39 98.5t-100 30.5h-207zM166 0h-85v694h292q54 0 95.5 -15.5t70 -43.5t43 -66.5t14.5 -84.5t-14.5 -84.5t-43 -66.5t-70 -43.5t-95.5 -15.5h-207v-274z" />
    <glyph glyph-name="Q" unicode="Q" horiz-adv-x="768" 
d="M576 160q32 38 50 86t18 104q0 60 -20 111t-55 88.5t-82.5 59t-102.5 21.5q-54 0 -101 -21.5t-82.5 -59.5t-56 -89t-20.5 -110t20.5 -110.5t56 -89t82.5 -59t101 -21.5q70 0 129 36l-97 104h114zM728 350q0 -73 -25 -137.5t-70 -113.5l94 -99h-114l-43 45
q-40 -27 -87 -42t-99 -15q-71 0 -134 28t-109.5 77t-73.5 115t-27 142t27 141.5t73.5 114.5t109.5 77t134 28q72 0 135 -27.5t109.5 -76t73 -114.5t26.5 -143z" />
    <glyph glyph-name="R" unicode="R" horiz-adv-x="664" 
d="M391 356q59 0 97.5 33t38.5 95q0 66 -36.5 97.5t-102.5 31.5h-222v-257h225zM591 0h-84v170q0 17 -3.5 35.5t-16 33.5t-36 25t-62.5 10h-223v-274h-85v694h307q53 0 95 -15.5t70.5 -43t43.5 -66.5t15 -85q0 -56 -24.5 -99.5t-69.5 -69.5q35 -20 54 -56.5t19 -88.5v-170z
" />
    <glyph glyph-name="S" unicode="S" horiz-adv-x="598" 
d="M560 197q0 -51 -19 -90t-53.5 -65.5t-83 -40t-106.5 -13.5q-60 0 -109 16.5t-83.5 47t-53.5 73.5t-19 95h88q0 -70 49 -110.5t128 -40.5q90 0 133.5 34.5t43.5 93.5q0 22 -6.5 40.5t-25.5 33.5t-54.5 27.5t-92.5 22.5q-58 10 -103 25t-76 37.5t-47 54.5t-16 77t17 81
t48.5 61.5t76.5 39.5t100 14q57 0 102.5 -15t77.5 -43t49 -68t17 -90h-86q0 61 -40.5 98t-118.5 37q-81 0 -119 -31.5t-38 -80.5q0 -23 7 -40t26.5 -30.5t53.5 -24.5t87 -21q57 -11 102.5 -25.5t77.5 -38t49 -57.5t17 -84z" />
    <glyph glyph-name="T" unicode="T" horiz-adv-x="555" 
d="M320 613v-613h-85v613h-218v81h521v-81h-218z" />
    <glyph glyph-name="U" unicode="U" horiz-adv-x="670" 
d="M153 249q0 -39 12 -71.5t35.5 -56.5t57 -37.5t77.5 -13.5t77.5 13.5t56.5 37.5t35 56.5t12 71.5v445h85v-445q0 -58 -19.5 -106t-54.5 -82.5t-84 -53.5t-108 -19q-60 0 -109 19t-84 53.5t-54 82.5t-19 106v445h84v-445z" />
    <glyph glyph-name="V" unicode="V" horiz-adv-x="610" 
d="M351 0h-91l-256 694h92l209 -589l210 589h91z" />
    <glyph glyph-name="W" unicode="W" horiz-adv-x="898" 
d="M602 0l-153 558l-154 -558h-90l-197 694h90l152 -557l154 557h89l154 -557l152 557h90l-197 -694h-90z" />
    <glyph glyph-name="X" unicode="X" horiz-adv-x="583" 
d="M15 694h101l176 -269l175 269h101l-226 -341l235 -353h-102l-183 281l-184 -281h-102l235 353z" />
    <glyph glyph-name="Y" unicode="Y" horiz-adv-x="575" 
d="M330 300v-300h-85v300l-241 394h98l186 -316l186 316h97z" />
    <glyph glyph-name="Z" unicode="Z" horiz-adv-x="582" 
d="M555 0h-528v76l421 537h-408v81h513v-78l-418 -534h420v-82z" />
    <glyph glyph-name="bracketleft" unicode="[" horiz-adv-x="310" 
d="M162 -12h127v-73h-212v870h212v-74h-127v-723z" />
    <glyph glyph-name="backslash" unicode="\" horiz-adv-x="274" 
d="M68 744l210 -744h-84l-211 744h85z" />
    <glyph glyph-name="bracketright" unicode="]" horiz-adv-x="310" 
d="M21 711v74h212v-870h-212v73h127v723h-127z" />
    <glyph glyph-name="asciicircum" unicode="^" horiz-adv-x="513" 
d="M480 258h-91l-132 341l-133 -341h-91l179 436h90z" />
    <glyph glyph-name="underscore" unicode="_" horiz-adv-x="881" 
d="M881 -151h-881v82h881v-82z" />
    <glyph glyph-name="grave" unicode="`" horiz-adv-x="417" 
d="M203 735l87 -132h-66l-123 132h102z" />
    <glyph glyph-name="a" unicode="a" horiz-adv-x="626" 
d="M468 256q0 39 -14 74t-38 61t-55.5 41t-67.5 15t-68 -15t-55 -41t-36.5 -61t-13.5 -74t13.5 -73t36.5 -59.5t55 -40.5t68 -15t67.5 15t55.5 40.5t38 59.5t14 73zM553 0h-82v83q-27 -40 -74 -68t-104 -28q-56 0 -103 21t-81.5 58t-54 86t-19.5 105t19.5 105.5t54 86
t81.5 58t103 21.5q57 0 104 -28t74 -67v82h82v-515z" />
    <glyph glyph-name="b" unicode="b" horiz-adv-x="626" 
d="M505 256q0 39 -13.5 74t-36.5 61t-54.5 41t-67.5 15t-67.5 -15t-55.5 -41t-38 -61t-14 -74t14 -73t38 -59.5t55.5 -40.5t67.5 -15t67.5 15t54.5 40.5t36.5 59.5t13.5 73zM590 256q0 -56 -19.5 -104.5t-53.5 -85.5t-81.5 -58t-102.5 -21q-57 0 -104 28t-74 68v-83h-82v744
h85v-307q28 38 73.5 64.5t101.5 26.5q55 0 102.5 -21.5t81.5 -58.5t53.5 -86.5t19.5 -105.5z" />
    <glyph glyph-name="c" unicode="c" horiz-adv-x="563" 
d="M533 160q-26 -78 -89.5 -125t-150.5 -47q-53 0 -100 21t-82 57.5t-55.5 85.5t-20.5 105t20.5 105.5t55.5 86t82 58t100 21.5q43 0 81 -12.5t69 -35t54 -54t36 -70.5h-91q-22 42 -60 66.5t-89 24.5q-36 0 -67.5 -15t-55 -41t-37 -60.5t-13.5 -73.5t13.5 -73.5t37 -60
t55 -40t67.5 -14.5q51 0 89.5 24.5t59.5 66.5h91z" />
    <glyph glyph-name="d" unicode="d" horiz-adv-x="626" 
d="M468 256q0 39 -14 74t-38 61t-55.5 41t-67.5 15t-68 -15t-55 -41t-36.5 -61t-13.5 -74t13.5 -73t36.5 -59.5t55 -40.5t68 -15t67.5 15t55.5 40.5t38 59.5t14 73zM553 0h-82v83q-27 -40 -74 -68t-104 -28q-56 0 -103 21t-81.5 58t-54 85.5t-19.5 104.5t19.5 105.5t54 86.5
t81.5 58.5t103 21.5t101.5 -26.5t73.5 -64.5v307h85v-744z" />
    <glyph glyph-name="e" unicode="e" horiz-adv-x="585" 
d="M460 311q-8 31 -24.5 57t-38.5 44.5t-48.5 28.5t-54.5 10q-27 0 -53.5 -9.5t-49 -27.5t-40 -44t-25.5 -59h334zM542 160q-27 -83 -90 -127.5t-153 -44.5q-56 0 -104 21t-83.5 57t-56 85t-20.5 106q0 56 20.5 105.5t55.5 86t82 58t101 21.5q50 0 97 -20t83.5 -58t58 -92
t21.5 -123h-433q4 -40 20.5 -71.5t41 -53.5t54.5 -33.5t62 -11.5q55 0 93.5 25t59.5 70h90z" />
    <glyph glyph-name="f" unicode="f" horiz-adv-x="527" 
d="M407 477q0 29 -9.5 54t-27 43t-42 28t-54.5 10q-60 0 -96.5 -38t-36.5 -97v-137h347v-82h-347v-258h-85v477q0 48 16.5 87.5t45.5 68.5t69 45t87 16t87 -16t69 -45t45.5 -68.5t16.5 -87.5v-47h-85v47z" />
    <glyph glyph-name="g" unicode="g" horiz-adv-x="618" 
d="M468 256q0 40 -14 75t-38 61.5t-55.5 41.5t-67.5 15t-68 -15t-55 -41.5t-36.5 -61.5t-13.5 -75q0 -39 13.5 -74t36.5 -61t55 -41t68 -15t67.5 15t55.5 41t38 61t14 74zM553 24q0 -62 -19 -113t-54 -87.5t-84 -56.5t-108 -20q-92 0 -157.5 45.5t-85.5 124.5h89
q13 -29 33 -46.5t42.5 -26.5t43.5 -12t35 -3q49 0 83.5 17.5t56 45t31 62.5t9.5 70v54q-28 -38 -73.5 -64.5t-101.5 -26.5t-103 21t-81.5 58t-54 86t-19.5 105t19.5 105.5t54 86t81.5 58t103 21.5q57 0 104 -28t74 -67v82h82v-491z" />
    <glyph glyph-name="h" unicode="h" horiz-adv-x="574" 
d="M503 0h-84v313q0 60 -33 97.5t-93 37.5q-29 0 -54 -10t-43 -27.5t-28 -42t-10 -53.5v-315h-85v744h85v-281q26 30 63.5 47.5t83.5 17.5q47 0 84 -16t62.5 -45t38.5 -69t13 -88v-310z" />
    <glyph glyph-name="i" unicode="i" horiz-adv-x="233" 
d="M159 0h-85v515h85v-515zM159 593h-85v101h85v-101z" />
    <glyph glyph-name="j" unicode="j" horiz-adv-x="222" 
d="M157 -71q0 -35 -9 -64.5t-28 -51t-48.5 -32t-71.5 -7.5v83q35 -3 55 14q18 18 18 59v585h84v-586zM157 593h-84v101h84v-101z" />
    <glyph glyph-name="k" unicode="k" horiz-adv-x="545" 
d="M536 0h-103l-176 262l-99 -96v-166h-85v744h85v-460l235 231h125l-199 -193z" />
    <glyph glyph-name="l" unicode="l" horiz-adv-x="235" 
d="M160 0h-85v744h85v-744z" />
    <glyph glyph-name="m" unicode="m" horiz-adv-x="873" 
d="M803 0h-85v321q0 60 -28.5 94.5t-88.5 34.5q-26 0 -48.5 -10.5t-38.5 -28.5t-25 -42.5t-9 -53.5v-315h-84v321q0 60 -29.5 94.5t-86.5 34.5q-26 0 -48.5 -10.5t-39 -28.5t-25.5 -42.5t-9 -53.5v-315h-85v515h82v-56q24 32 59 50.5t78 18.5q55 0 95 -23t64 -65
q24 40 64.5 64t96.5 24q90 0 140.5 -56t50.5 -153v-319z" />
    <glyph glyph-name="n" unicode="n" horiz-adv-x="574" 
d="M503 0h-84v313q0 60 -32 98.5t-94 38.5q-29 0 -54 -10.5t-43 -28.5t-28 -42.5t-10 -53.5v-315h-85v515h82v-56q26 32 64.5 50.5t85.5 18.5t84 -16t62.5 -45t38.5 -69t13 -88v-310z" />
    <glyph glyph-name="o" unicode="o" horiz-adv-x="589" 
d="M294 66q36 0 67.5 15t55.5 40.5t37.5 60.5t13.5 74q0 40 -13.5 75.5t-37.5 61.5t-55.5 41.5t-67.5 15.5t-67.5 -15.5t-55 -41.5t-37 -61.5t-13.5 -75.5q0 -39 13.5 -74t37 -60.5t55 -40.5t67.5 -15zM294 528q55 0 102.5 -21.5t82 -58.5t54.5 -86.5t20 -105.5t-20 -104.5
t-54.5 -85t-82 -57.5t-102.5 -21t-102 21t-82 57.5t-55 85t-20 104.5t20 105.5t55 86.5t82 58.5t102 21.5z" />
    <glyph glyph-name="p" unicode="p" horiz-adv-x="626" 
d="M505 259q0 39 -13.5 74t-36.5 61t-54.5 41t-67.5 15t-67.5 -15t-55.5 -41t-38 -61t-14 -74q0 -40 14 -75t38 -61.5t55.5 -41.5t67.5 -15t67.5 15t54.5 41.5t36.5 61.5t13.5 75zM590 259q0 -56 -19.5 -105.5t-53.5 -86.5t-81.5 -58t-102.5 -21q-56 0 -101.5 26t-73.5 64
v-307h-85v744h82v-82q27 39 74 67t104 28q55 0 102.5 -21t81.5 -58t53.5 -86t19.5 -104z" />
    <glyph glyph-name="q" unicode="q" horiz-adv-x="626" 
d="M468 259q0 39 -14 74t-38 61t-55.5 41t-67.5 15t-68 -15t-55 -41t-36.5 -61t-13.5 -74q0 -40 13.5 -75t36.5 -61.5t55 -41.5t68 -15t67.5 15t55.5 41.5t38 61.5t14 75zM553 -229h-85v307q-28 -38 -73.5 -64t-101.5 -26t-103 21t-81.5 58t-54 86.5t-19.5 105.5
q0 55 19.5 104t54 86t81.5 58t103 21q57 0 104 -28t74 -67v82h82v-744z" />
    <glyph glyph-name="r" unicode="r" horiz-adv-x="537" 
d="M503 275h-84v38q0 60 -33 98.5t-93 38.5q-29 0 -54 -10.5t-43 -28.5t-28 -42.5t-10 -53.5v-315h-85v515h82v-56q26 32 64.5 50.5t85.5 18.5t84 -16t62.5 -45t38.5 -69t13 -88v-35z" />
    <glyph glyph-name="s" unicode="s" horiz-adv-x="503" 
d="M472 155q0 -39 -15.5 -70t-43.5 -52.5t-67 -33.5t-85 -12q-47 0 -87 12t-70 35t-49 55.5t-24 73.5h86q8 -45 48 -71t96 -26q60 0 94.5 25t34.5 59q0 13 -4 25t-18.5 22t-42.5 18.5t-75 14.5q-47 7 -84 16.5t-63 26t-40 41.5t-14 61q0 28 12 55t37 49t63 35.5t90 13.5
q90 0 146 -42.5t64 -118.5h-86q-9 42 -42.5 62.5t-81.5 20.5q-51 0 -84 -21t-33 -51q0 -14 6 -23.5t21 -17t40 -13.5t63 -12q43 -7 80.5 -16t66 -25.5t45 -44t16.5 -71.5z" />
    <glyph glyph-name="t" unicode="t" horiz-adv-x="563" 
d="M506 205q0 -48 -16 -87.5t-45 -68.5t-69 -45t-87 -16t-87 16t-69 45t-45.5 68.5t-16.5 87.5v420h84v-110h348v-81h-348v-229q0 -29 9.5 -54t27.5 -43t42.5 -28t54.5 -10q60 0 96.5 38t36.5 97v47h84v-47z" />
    <glyph glyph-name="u" unicode="u" horiz-adv-x="574" 
d="M501 0h-82v56q-26 -32 -64 -50t-86 -18q-47 0 -84 16t-62.5 45t-38.5 68.5t-13 87.5v310h84v-314q0 -62 32.5 -99t94.5 -37q28 0 52.5 10t42.5 28t28.5 42.5t10.5 53.5v316h85v-515z" />
    <glyph glyph-name="v" unicode="v" horiz-adv-x="485" 
d="M288 0h-91l-187 515h90l143 -410l142 410h90z" />
    <glyph glyph-name="w" unicode="w" horiz-adv-x="721" 
d="M515 128l109 387h89l-154 -515h-89l-110 394l-110 -394h-88l-154 515h89l110 -387l110 387h88z" />
    <glyph glyph-name="x" unicode="x" horiz-adv-x="484" 
d="M242 201l-132 -201h-104l184 266l-172 249h104l120 -184l120 184h104l-173 -249l185 -266h-104z" />
    <glyph glyph-name="y" unicode="y" horiz-adv-x="566" 
d="M497 515v-553q0 -51 -16.5 -90.5t-45.5 -67.5t-68.5 -42.5t-84.5 -14.5q-41 0 -76 11.5t-63 33.5t-47 53.5t-26 71.5h86q14 -42 45 -65t81 -23q60 0 95 36.5t35 96.5v77q-48 -51 -130 -51q-45 0 -84.5 15.5t-68.5 43.5t-45.5 67.5t-16.5 88.5v312h84v-312
q0 -58 35.5 -95.5t95.5 -37.5t95 37.5t35 95.5v312h85z" />
    <glyph glyph-name="z" unicode="z" horiz-adv-x="470" 
d="M443 0h-416v71l296 363h-288v81h399v-77l-293 -356h302v-82z" />
    <glyph glyph-name="braceleft" unicode="{" horiz-adv-x="308" 
d="M273 709q-42 2 -59.5 -18t-17.5 -57v-165q0 -50 -17.5 -79t-52.5 -43q35 -13 52.5 -42t17.5 -80v-162q0 -38 17.5 -57.5t59.5 -17.5v-71q-33 -3 -62 3.5t-50 23.5t-33.5 46t-12.5 73v165q0 25 -7 41.5t-19 26t-27.5 13t-32.5 3.5v70q17 0 32.5 3.5t27.5 13t19 25.5t7 42
v168q0 43 12.5 72.5t33.5 46.5t50 23.5t62 3.5v-71z" />
    <glyph glyph-name="bar" unicode="|" horiz-adv-x="222" 
d="M153 0h-84v744h84v-744z" />
    <glyph glyph-name="braceright" unicode="}" horiz-adv-x="308" 
d="M35 780q33 3 62 -3.5t50 -23.5t33.5 -46.5t12.5 -72.5v-168q0 -26 7 -42t19 -25.5t27.5 -13t32.5 -3.5v-70q-17 0 -32.5 -3.5t-27.5 -13t-19 -26t-7 -41.5v-165q0 -44 -12.5 -73t-33.5 -46t-50 -23.5t-62 -3.5v71q42 -2 59.5 17.5t17.5 57.5v162q0 51 17.5 80t52.5 42
q-35 14 -52.5 43t-17.5 79v165q0 37 -17.5 57t-59.5 18v71z" />
    <glyph glyph-name="asciitilde" unicode="~" horiz-adv-x="379" 
d="M254 593q-20 0 -39 6t-36.5 13t-34 13t-31.5 6q-18 0 -29 -12.5t-13 -30.5h-48q2 20 9 39t19.5 33.5t31 23.5t42.5 9q21 0 40.5 -6t36.5 -13.5t33 -13.5t31 -6q18 0 29 13t13 31h48q-2 -20 -8.5 -39t-19 -33.5t-31 -23.5t-43.5 -9z" />
    <glyph glyph-name="Adieresis" unicode="&#xc4;" horiz-adv-x="627" 
d="M314 590l-113 -309h224zM172 202l-74 -202h-92l262 694h96l257 -694h-95l-73 202h-281zM183 774v100h92v-100h-92zM352 774v100h91v-100h-91z" />
    <glyph glyph-name="Aring" unicode="&#xc5;" horiz-adv-x="627" 
d="M314 590l-113 -309h224zM364 863q0 22 -15 37t-36 15t-36 -15t-15 -37q0 -21 15 -36t36 -15t36 15t15 36zM172 202l-74 -202h-92l262 694h96l257 -694h-95l-73 202h-281zM313 768q-20 0 -37.5 7.5t-30 20.5t-20 30t-7.5 37q0 40 27.5 68t67.5 28q19 0 36.5 -7.5
t30.5 -20.5t20.5 -30.5t7.5 -37.5t-7.5 -37t-20.5 -30t-30.5 -20.5t-36.5 -7.5z" />
    <glyph glyph-name="Ccedilla" unicode="&#xc7;" horiz-adv-x="727" 
d="M355 -59q16 7 34.5 7.5t34 -7t26 -22.5t10.5 -37q0 -34 -22.5 -52t-58.5 -18q-23 0 -47 11t-41 31l12 22q15 -14 34 -20.5t38 -6.5q17 0 29.5 8t12.5 23q0 14 -10.5 24t-29.5 10q-9 0 -18.5 -2.5t-17.5 -10.5l-32 21l34 68q-64 8 -119.5 39.5t-96 79.5t-64 110t-23.5 131
q0 75 27 140.5t73.5 114.5t109.5 77.5t134 28.5q59 0 110 -17t91.5 -47.5t70 -73t46.5 -93.5h-89q-29 66 -86.5 108t-142.5 42q-54 0 -101 -22t-82.5 -60.5t-56 -89.5t-20.5 -108t20.5 -108t56 -89.5t82.5 -60.5t101 -22q77 0 137 40.5t92 109.5h89q-18 -53 -49 -96t-72 -73
t-91 -46.5t-106 -16.5z" />
    <glyph glyph-name="Eacute" unicode="&#xc9;" horiz-adv-x="620" 
d="M577 694v-81h-411v-210h371v-81h-371v-240h411v-82h-496v694h496zM361 765h-66l87 137h104z" />
    <glyph glyph-name="Ntilde" unicode="&#xd1;" horiz-adv-x="715" 
d="M633 0h-94l-373 565v-565h-85v694h95l373 -564v564h84v-694zM425 778q-20 0 -39 6t-36.5 13t-34 13t-31.5 6q-18 0 -29 -12.5t-13 -30.5h-48q1 20 8 39t19.5 33.5t31 23.5t43.5 9q21 0 40.5 -6t36.5 -13.5t33 -13.5t31 -6q18 0 29 13t13 31h48q-2 -20 -8.5 -39
t-19.5 -33.5t-31.5 -23.5t-42.5 -9z" />
    <glyph glyph-name="Odieresis" unicode="&#xd6;" horiz-adv-x="768" 
d="M384 70q54 0 101 21.5t82.5 59.5t56 89t20.5 110q0 60 -20 111t-55 88.5t-82.5 59t-102.5 21.5q-54 0 -101 -21.5t-82.5 -59.5t-56 -89t-20.5 -110t20.5 -110.5t56 -89t82.5 -59t101 -21.5zM384 711q72 0 135 -27.5t109.5 -76t73 -114.5t26.5 -143q0 -76 -27 -142
t-73.5 -115t-109.5 -77t-134 -28t-134 28t-109.5 77t-73.5 115t-27 142t27 141.5t73.5 114.5t109.5 77t134 28zM254 774v100h91v-100h-91zM423 774v100h91v-100h-91z" />
    <glyph glyph-name="Udieresis" unicode="&#xdc;" horiz-adv-x="670" 
d="M153 249q0 -39 12 -71.5t35.5 -56.5t57 -37.5t77.5 -13.5t77.5 13.5t56.5 37.5t35 56.5t12 71.5v445h85v-445q0 -58 -19.5 -106t-54.5 -82.5t-84 -53.5t-108 -19q-60 0 -109 19t-84 53.5t-54 82.5t-19 106v445h84v-445zM205 774v100h92v-100h-92zM374 774v100h91v-100
h-91z" />
    <glyph glyph-name="aacute" unicode="&#xe1;" horiz-adv-x="626" 
d="M468 256q0 39 -14 74t-38 61t-55.5 41t-67.5 15t-68 -15t-55 -41t-36.5 -61t-13.5 -74t13.5 -73t36.5 -59.5t55 -40.5t68 -15t67.5 15t55.5 40.5t38 59.5t14 73zM553 0h-82v83q-27 -40 -74 -68t-104 -28q-56 0 -103 21t-81.5 58t-54 86t-19.5 105t19.5 105.5t54 86
t81.5 58t103 21.5q57 0 104 -28t74 -67v82h82v-515zM328 584h-66l87 136h104z" />
    <glyph glyph-name="agrave" unicode="&#xe0;" horiz-adv-x="626" 
d="M468 256q0 39 -14 74t-38 61t-55.5 41t-67.5 15t-68 -15t-55 -41t-36.5 -61t-13.5 -74t13.5 -73t36.5 -59.5t55 -40.5t68 -15t67.5 15t55.5 40.5t38 59.5t14 73zM553 0h-82v83q-27 -40 -74 -68t-104 -28q-56 0 -103 21t-81.5 58t-54 86t-19.5 105t19.5 105.5t54 86
t81.5 58t103 21.5q57 0 104 -28t74 -67v82h82v-515zM237 721l88 -137h-67l-125 137h104z" />
    <glyph glyph-name="acircumflex" unicode="&#xe2;" horiz-adv-x="626" 
d="M468 256q0 39 -14 74t-38 61t-55.5 41t-67.5 15t-68 -15t-55 -41t-36.5 -61t-13.5 -74t13.5 -73t36.5 -59.5t55 -40.5t68 -15t67.5 15t55.5 40.5t38 59.5t14 73zM553 0h-82v83q-27 -40 -74 -68t-104 -28q-56 0 -103 21t-81.5 58t-54 86t-19.5 105t19.5 105.5t54 86
t81.5 58t103 21.5q57 0 104 -28t74 -67v82h82v-515zM303 674l-64 -91h-77l104 143h74l104 -143h-77z" />
    <glyph glyph-name="adieresis" unicode="&#xe4;" horiz-adv-x="626" 
d="M468 256q0 39 -14 74t-38 61t-55.5 41t-67.5 15t-68 -15t-55 -41t-36.5 -61t-13.5 -74t13.5 -73t36.5 -59.5t55 -40.5t68 -15t67.5 15t55.5 40.5t38 59.5t14 73zM553 0h-82v83q-27 -40 -74 -68t-104 -28q-56 0 -103 21t-81.5 58t-54 86t-19.5 105t19.5 105.5t54 86
t81.5 58t103 21.5q57 0 104 -28t74 -67v82h82v-515zM160 594v99h92v-99h-92zM329 594v99h92v-99h-92z" />
    <glyph glyph-name="atilde" unicode="&#xe3;" horiz-adv-x="626" 
d="M468 256q0 39 -14 74t-38 61t-55.5 41t-67.5 15t-68 -15t-55 -41t-36.5 -61t-13.5 -74t13.5 -73t36.5 -59.5t55 -40.5t68 -15t67.5 15t55.5 40.5t38 59.5t14 73zM553 0h-82v83q-27 -40 -74 -68t-104 -28q-56 0 -103 21t-81.5 58t-54 86t-19.5 105t19.5 105.5t54 86
t81.5 58t103 21.5q57 0 104 -28t74 -67v82h82v-515zM366 597q-20 0 -39 6t-36.5 13t-34 13t-31.5 6q-19 0 -29.5 -12.5t-12.5 -30.5h-48q1 20 8 39t19.5 34t31 24t43.5 9q21 0 40.5 -6t36.5 -13.5t33 -13.5t31 -6q19 0 29.5 12.5t12.5 30.5h48q-2 -20 -8.5 -39t-19.5 -33.5
t-31.5 -23.5t-42.5 -9z" />
    <glyph glyph-name="aring" unicode="&#xe5;" horiz-adv-x="626" 
d="M342 690q0 21 -15 36t-37 15q-21 0 -36 -15t-15 -36t15 -36t36 -15q22 0 37 15t15 36zM468 256q0 39 -14 74t-38 61t-55.5 41t-67.5 15t-68 -15t-55 -41t-36.5 -61t-13.5 -74t13.5 -73t36.5 -59.5t55 -40.5t68 -15t67.5 15t55.5 40.5t38 59.5t14 73zM553 0h-82v83
q-27 -40 -74 -68t-104 -28q-56 0 -103 21t-81.5 58t-54 86t-19.5 105t19.5 105.5t54 86t81.5 58t103 21.5q57 0 104 -28t74 -67v82h82v-515zM290 595q-20 0 -37 7.5t-30 20.5t-20.5 30t-7.5 37t7.5 37.5t20.5 30t30 20t37 7.5q40 0 68 -27.5t28 -67.5q0 -20 -7.5 -37
t-20.5 -30t-30.5 -20.5t-37.5 -7.5z" />
    <glyph glyph-name="ccedilla" unicode="&#xe7;" horiz-adv-x="563" 
d="M278 -59q16 7 34.5 7.5t34 -7t26 -22.5t10.5 -37q0 -34 -22.5 -52t-57.5 -18q-23 0 -48 11t-41 31l12 22q15 -14 34 -20.5t38 -6.5q17 0 29.5 8t12.5 23q0 14 -10.5 24t-29.5 10q-9 0 -18.5 -2.5t-17.5 -10.5l-32 21l33 68q-48 5 -90 28t-73 58.5t-49 82t-18 98.5
q0 56 20.5 105.5t55.5 86t82 58t100 21.5q43 0 81 -12.5t69 -35t54 -54t36 -70.5h-91q-22 42 -60 66.5t-89 24.5q-36 0 -67.5 -15t-55 -41t-37 -60.5t-13.5 -73.5t13.5 -73.5t37 -60t55 -40t67.5 -14.5q51 0 89.5 24.5t59.5 66.5h91q-25 -75 -85 -121.5t-141 -50.5z" />
    <glyph glyph-name="eacute" unicode="&#xe9;" horiz-adv-x="585" 
d="M460 311q-8 31 -24.5 57t-38.5 44.5t-48.5 28.5t-54.5 10q-27 0 -53.5 -9.5t-49 -27.5t-40 -44t-25.5 -59h334zM542 160q-27 -83 -90 -127.5t-153 -44.5q-56 0 -104 21t-83.5 57t-56 85t-20.5 106q0 56 20.5 105.5t55.5 86t82 58t101 21.5q50 0 97 -20t83.5 -58t58 -92
t21.5 -123h-433q4 -40 20.5 -71.5t41 -53.5t54.5 -33.5t62 -11.5q55 0 93.5 25t59.5 70h90zM331 584h-66l87 136h104z" />
    <glyph glyph-name="egrave" unicode="&#xe8;" horiz-adv-x="585" 
d="M460 311q-8 31 -24.5 57t-38.5 44.5t-48.5 28.5t-54.5 10q-27 0 -53.5 -9.5t-49 -27.5t-40 -44t-25.5 -59h334zM542 160q-27 -83 -90 -127.5t-153 -44.5q-56 0 -104 21t-83.5 57t-56 85t-20.5 106q0 56 20.5 105.5t55.5 86t82 58t101 21.5q50 0 97 -20t83.5 -58t58 -92
t21.5 -123h-433q4 -40 20.5 -71.5t41 -53.5t54.5 -33.5t62 -11.5q55 0 93.5 25t59.5 70h90zM240 721l87 -137h-67l-124 137h104z" />
    <glyph glyph-name="ecircumflex" unicode="&#xea;" horiz-adv-x="585" 
d="M460 311q-8 31 -24.5 57t-38.5 44.5t-48.5 28.5t-54.5 10q-27 0 -53.5 -9.5t-49 -27.5t-40 -44t-25.5 -59h334zM542 160q-27 -83 -90 -127.5t-153 -44.5q-56 0 -104 21t-83.5 57t-56 85t-20.5 106q0 56 20.5 105.5t55.5 86t82 58t101 21.5q50 0 97 -20t83.5 -58t58 -92
t21.5 -123h-433q4 -40 20.5 -71.5t41 -53.5t54.5 -33.5t62 -11.5q55 0 93.5 25t59.5 70h90zM285 674l-64 -91h-77l104 143h74l104 -143h-77z" />
    <glyph glyph-name="edieresis" unicode="&#xeb;" horiz-adv-x="585" 
d="M460 311q-8 31 -24.5 57t-38.5 44.5t-48.5 28.5t-54.5 10q-27 0 -53.5 -9.5t-49 -27.5t-40 -44t-25.5 -59h334zM542 160q-27 -83 -90 -127.5t-153 -44.5q-56 0 -104 21t-83.5 57t-56 85t-20.5 106q0 56 20.5 105.5t55.5 86t82 58t101 21.5q50 0 97 -20t83.5 -58t58 -92
t21.5 -123h-433q4 -40 20.5 -71.5t41 -53.5t54.5 -33.5t62 -11.5q55 0 93.5 25t59.5 70h90zM159 594v99h91v-99h-91zM328 594v99h91v-99h-91z" />
    <glyph glyph-name="iacute" unicode="&#xed;" horiz-adv-x="233" 
d="M159 0h-85v515h85v-515zM151 584h-66l87 136h104z" />
    <glyph glyph-name="igrave" unicode="&#xec;" horiz-adv-x="233" 
d="M159 0h-85v515h85v-515zM57 721l87 -137h-66l-125 137h104z" />
    <glyph glyph-name="icircumflex" unicode="&#xee;" horiz-adv-x="233" 
d="M159 0h-85v515h85v-515zM115 674l-65 -91h-77l105 143h73l104 -143h-77z" />
    <glyph glyph-name="idieresis" unicode="&#xef;" horiz-adv-x="233" 
d="M159 0h-85v515h85v-515zM-14 594v99h92v-99h-92zM155 594v99h92v-99h-92z" />
    <glyph glyph-name="ntilde" unicode="&#xf1;" horiz-adv-x="574" 
d="M503 0h-84v313q0 60 -32 98.5t-94 38.5q-29 0 -54 -10.5t-43 -28.5t-28 -42.5t-10 -53.5v-315h-85v515h82v-56q26 32 64.5 50.5t85.5 18.5t84 -16t62.5 -45t38.5 -69t13 -88v-310zM347 597q-20 0 -39 6t-36.5 13t-34 13t-31.5 6q-18 0 -29 -12.5t-13 -30.5h-48q1 20 8 39
t20 34t31.5 24t42.5 9q21 0 40.5 -6t36.5 -13.5t33.5 -13.5t31.5 -6q18 0 29 12.5t13 30.5h47q-2 -20 -8.5 -39t-19 -33.5t-31 -23.5t-43.5 -9z" />
    <glyph glyph-name="oacute" unicode="&#xf3;" horiz-adv-x="589" 
d="M294 66q36 0 67.5 15t55.5 40.5t37.5 60.5t13.5 74q0 40 -13.5 75.5t-37.5 61.5t-55.5 41.5t-67.5 15.5t-67.5 -15.5t-55 -41.5t-37 -61.5t-13.5 -75.5q0 -39 13.5 -74t37 -60.5t55 -40.5t67.5 -15zM294 528q55 0 102.5 -21.5t82 -58.5t54.5 -86.5t20 -105.5t-20 -104.5
t-54.5 -85t-82 -57.5t-102.5 -21t-102 21t-82 57.5t-55 85t-20 104.5t20 105.5t55 86.5t82 58.5t102 21.5zM333 584h-66l87 136h104z" />
    <glyph glyph-name="ograve" unicode="&#xf2;" horiz-adv-x="589" 
d="M294 66q36 0 67.5 15t55.5 40.5t37.5 60.5t13.5 74q0 40 -13.5 75.5t-37.5 61.5t-55.5 41.5t-67.5 15.5t-67.5 -15.5t-55 -41.5t-37 -61.5t-13.5 -75.5q0 -39 13.5 -74t37 -60.5t55 -40.5t67.5 -15zM294 528q55 0 102.5 -21.5t82 -58.5t54.5 -86.5t20 -105.5t-20 -104.5
t-54.5 -85t-82 -57.5t-102.5 -21t-102 21t-82 57.5t-55 85t-20 104.5t20 105.5t55 86.5t82 58.5t102 21.5zM232 721l87 -137h-66l-125 137h104z" />
    <glyph glyph-name="ocircumflex" unicode="&#xf4;" horiz-adv-x="589" 
d="M294 66q36 0 67.5 15t55.5 40.5t37.5 60.5t13.5 74q0 40 -13.5 75.5t-37.5 61.5t-55.5 41.5t-67.5 15.5t-67.5 -15.5t-55 -41.5t-37 -61.5t-13.5 -75.5q0 -39 13.5 -74t37 -60.5t55 -40.5t67.5 -15zM294 528q55 0 102.5 -21.5t82 -58.5t54.5 -86.5t20 -105.5t-20 -104.5
t-54.5 -85t-82 -57.5t-102.5 -21t-102 21t-82 57.5t-55 85t-20 104.5t20 105.5t55 86.5t82 58.5t102 21.5zM293 674l-65 -91h-76l104 143h74l104 -143h-77z" />
    <glyph glyph-name="odieresis" unicode="&#xf6;" horiz-adv-x="589" 
d="M294 66q36 0 67.5 15t55.5 40.5t37.5 60.5t13.5 74q0 40 -13.5 75.5t-37.5 61.5t-55.5 41.5t-67.5 15.5t-67.5 -15.5t-55 -41.5t-37 -61.5t-13.5 -75.5q0 -39 13.5 -74t37 -60.5t55 -40.5t67.5 -15zM294 528q55 0 102.5 -21.5t82 -58.5t54.5 -86.5t20 -105.5t-20 -104.5
t-54.5 -85t-82 -57.5t-102.5 -21t-102 21t-82 57.5t-55 85t-20 104.5t20 105.5t55 86.5t82 58.5t102 21.5zM164 594v99h92v-99h-92zM333 594v99h92v-99h-92z" />
    <glyph glyph-name="otilde" unicode="&#xf5;" horiz-adv-x="589" 
d="M294 66q36 0 67.5 15t55.5 40.5t37.5 60.5t13.5 74q0 40 -13.5 75.5t-37.5 61.5t-55.5 41.5t-67.5 15.5t-67.5 -15.5t-55 -41.5t-37 -61.5t-13.5 -75.5q0 -39 13.5 -74t37 -60.5t55 -40.5t67.5 -15zM294 528q55 0 102.5 -21.5t82 -58.5t54.5 -86.5t20 -105.5t-20 -104.5
t-54.5 -85t-82 -57.5t-102.5 -21t-102 21t-82 57.5t-55 85t-20 104.5t20 105.5t55 86.5t82 58.5t102 21.5zM347 597q-20 0 -39 6t-37 13t-34.5 13t-31.5 6q-18 0 -29 -12.5t-13 -30.5h-47q1 20 8 39t19.5 34t31 24t43.5 9q21 0 40 -6t36.5 -13.5t33.5 -13.5t31 -6
q18 0 29 12.5t13 30.5h48q-2 -20 -8.5 -39t-19.5 -33.5t-31.5 -23.5t-42.5 -9z" />
    <glyph glyph-name="uacute" unicode="&#xfa;" horiz-adv-x="574" 
d="M501 0h-82v56q-26 -32 -64 -50t-86 -18q-47 0 -84 16t-62.5 45t-38.5 68.5t-13 87.5v310h84v-314q0 -62 32.5 -99t94.5 -37q28 0 52.5 10t42.5 28t28.5 42.5t10.5 53.5v316h85v-515zM314 584h-66l87 136h104z" />
    <glyph glyph-name="ugrave" unicode="&#xf9;" horiz-adv-x="574" 
d="M501 0h-82v56q-26 -32 -64 -50t-86 -18q-47 0 -84 16t-62.5 45t-38.5 68.5t-13 87.5v310h84v-314q0 -62 32.5 -99t94.5 -37q28 0 52.5 10t42.5 28t28.5 42.5t10.5 53.5v316h85v-515zM234 721l87 -137h-66l-125 137h104z" />
    <glyph glyph-name="ucircumflex" unicode="&#xfb;" horiz-adv-x="574" 
d="M501 0h-82v56q-26 -32 -64 -50t-86 -18q-47 0 -84 16t-62.5 45t-38.5 68.5t-13 87.5v310h84v-314q0 -62 32.5 -99t94.5 -37q28 0 52.5 10t42.5 28t28.5 42.5t10.5 53.5v316h85v-515zM285 674l-64 -91h-77l104 143h74l104 -143h-77z" />
    <glyph glyph-name="udieresis" unicode="&#xfc;" horiz-adv-x="574" 
d="M501 0h-82v56q-26 -32 -64 -50t-86 -18q-47 0 -84 16t-62.5 45t-38.5 68.5t-13 87.5v310h84v-314q0 -62 32.5 -99t94.5 -37q28 0 52.5 10t42.5 28t28.5 42.5t10.5 53.5v316h85v-515zM153 594v99h91v-99h-91zM321 594v99h92v-99h-92z" />
    <glyph glyph-name="dagger" unicode="&#x2020;" horiz-adv-x="370" 
d="M328 567v-73h-105v-295h-76v295h-105v73h105v127h76v-127h105z" />
    <glyph glyph-name="degree" unicode="&#xb0;" horiz-adv-x="378" 
d="M189 443q41 0 69 28t28 70q0 41 -28 69.5t-69 28.5t-69 -28.5t-28 -69.5q0 -42 28 -70t69 -28zM189 694q31 0 59 -12t49 -33t33.5 -49t12.5 -59q0 -32 -12.5 -60t-33.5 -49t-49 -33t-59 -12q-32 0 -60 12t-49 33t-33 49t-12 60q0 31 12 59t33 49t49 33t60 12z" />
    <glyph glyph-name="cent" unicode="&#xa2;" horiz-adv-x="547" 
d="M299 446q-4 0 -7.5 0.5t-7.5 0.5q-35 0 -65.5 -14.5t-53.5 -39.5t-36 -58.5t-13 -71.5q0 -50 22 -90.5t58 -64.5zM518 168q-26 -76 -87.5 -122t-146.5 -46q-16 0 -30.5 2t-28.5 5l-35 -117h-60l42 138q-63 32 -102 94.5t-39 140.5q0 55 20 103t54.5 84t80.5 57t98 21
q19 0 39 -3l32 106h60l-37 -121q50 -20 85.5 -58.5t54.5 -91.5h-92q-25 48 -72 71l-105 -346q8 -2 17 -3t18 -1q47 0 84.5 22.5t58.5 64.5h91z" />
    <glyph glyph-name="sterling" unicode="&#xa3;" horiz-adv-x="550" 
d="M531 30q-30 -24 -61 -33.5t-61 -9t-58.5 9t-53.5 20.5q-22 10 -43 15.5t-44 4t-49 -12t-56 -31.5l-47 71q47 28 73 71t26 103q0 17 -4 32t-11 29h-111v57h76q-18 29 -33.5 61.5t-15.5 80.5q0 43 16.5 80t46.5 64t72.5 42t94.5 15q51 0 93.5 -16t73 -44.5t47 -68
t16.5 -87.5h-84q0 63 -37 99.5t-109 36.5q-66 0 -104.5 -33t-38.5 -88q0 -41 18.5 -73.5t38.5 -68.5h160v-57h-136q4 -14 6.5 -29.5t2.5 -32.5q0 -37 -14.5 -76t-50.5 -71q42 23 82 21.5t79 -18.5q51 -21 85.5 -20t67.5 27z" />
    <glyph glyph-name="section" unicode="&#xa7;" horiz-adv-x="535" 
d="M370 260q18 8 28.5 24t10.5 37q0 15 -4.5 27.5t-19 22.5t-40 18t-67.5 16q-32 6 -61 14t-52 21q-38 -18 -38 -60q0 -17 5 -29.5t20 -23t41.5 -19t68.5 -16.5q32 -7 59 -14.5t49 -17.5zM433 207q17 -27 17 -68q0 -35 -13.5 -63t-37.5 -47.5t-58 -30t-75 -10.5t-75 12
t-59 34t-38.5 52.5t-13.5 68.5h83q0 -43 29 -65t74 -22t72 18.5t27 52.5q0 12 -4.5 22t-18 19.5t-37.5 18t-64 16.5q-32 7 -67.5 16t-64.5 27t-48 46.5t-19 74.5q0 36 16.5 65t45.5 49q-19 28 -19 67q0 34 13.5 61.5t38 47.5t58.5 31t75 11q40 0 74 -11t59 -32.5t39 -53
t14 -71.5h-83q0 41 -26 64.5t-77 23.5q-41 0 -70.5 -17t-29.5 -54q0 -14 5 -24.5t18.5 -19t38.5 -16.5t64 -15q48 -9 85 -21.5t62 -31.5t38 -45.5t13 -65.5q0 -38 -17 -67t-44 -47z" />
    <glyph glyph-name="bullet" unicode="&#x2022;" horiz-adv-x="313" 
d="M157 258q-23 0 -42.5 8.5t-33.5 22.5t-22.5 33.5t-8.5 42.5q0 22 8.5 41t22.5 33.5t33.5 23t42.5 8.5q22 0 41 -8.5t33.5 -23t23 -33.5t8.5 -41q0 -23 -8.5 -42.5t-23 -33.5t-33.5 -22.5t-41 -8.5z" />
    <glyph glyph-name="paragraph" unicode="&#xb6;" horiz-adv-x="550" 
d="M488 0h-85v613h-88v-613h-84v275q-49 3 -87 19.5t-64.5 44t-40 64.5t-13.5 81q0 46 14.5 84.5t43 66.5t70 43.5t95.5 15.5h239v-694z" />
    <glyph glyph-name="germandbls" unicode="&#xdf;" horiz-adv-x="601" 
d="M562 212q0 -50 -17 -91.5t-48.5 -71t-75.5 -45.5t-98 -16q-50 0 -98 14v83q20 -8 46.5 -12.5t51.5 -4.5q69 0 112 37t43 105q0 39 -14.5 66.5t-38 44.5t-52.5 24.5t-58 8.5h-87v81h62q33 0 58.5 9t43 25t26.5 36t9 43q0 31 -11.5 53t-30.5 36.5t-43.5 21.5t-50.5 7
t-50.5 -8t-44 -26t-31.5 -47t-12 -72v-513h-84v513q0 53 16.5 96t45.5 73t70 46t90 16t89.5 -14.5t69.5 -40.5t45.5 -62t16.5 -79q0 -49 -22.5 -85t-61.5 -58q63 -23 98.5 -72t35.5 -121z" />
    <glyph glyph-name="registered" unicode="&#xae;" horiz-adv-x="800" 
d="M328 367h117q23 0 42.5 13.5t19.5 47.5t-16.5 47.5t-45.5 13.5h-117v-122zM583 159h-86l-72 139h-97v-138h-75v398h191q63 0 100 -35t37 -95q0 -43 -22.5 -75t-60.5 -46zM690 350q0 61 -23 114.5t-62 93.5t-92 63t-113 23t-113 -23t-92 -63t-62 -93.5t-23 -114.5t23 -115
t62 -94t92 -63t113 -23t113 23t92 63t62 94t23 115zM762 350q0 -75 -28.5 -141t-77.5 -115t-115 -77.5t-141 -28.5t-141 28.5t-115 77.5t-77.5 115t-28.5 141t28.5 140.5t77.5 114.5t115 77.5t141 28.5t141 -28.5t115 -77.5t77.5 -114.5t28.5 -140.5z" />
    <glyph glyph-name="copyright" unicode="&#xa9;" horiz-adv-x="800" 
d="M595 282q-10 -32 -29 -59.5t-44.5 -47t-56.5 -30.5t-65 -11q-42 0 -79.5 17t-65.5 46.5t-44.5 68.5t-16.5 84q0 44 16.5 83t44.5 68.5t65.5 46.5t79.5 17q35 0 66.5 -11t57 -30.5t44 -46.5t28.5 -59h-78q-16 35 -47 55.5t-71 20.5q-28 0 -52 -11.5t-42 -31t-28 -45.5
t-10 -56t10 -56.5t28 -46t42 -31t52 -11.5q39 0 70 21t48 56h77zM400 55q60 0 113 23t92 63t62 94t23 115t-23 114.5t-62 93.5t-92 63t-113 23t-113 -23t-92 -63t-62 -93.5t-23 -114.5t23 -115t62 -94t92 -63t113 -23zM400 711q75 0 141 -28.5t115 -77.5t77.5 -114.5
t28.5 -140.5t-28.5 -141t-77.5 -115t-115 -77.5t-141 -28.5t-141 28.5t-115 77.5t-77.5 115t-28.5 141t28.5 140.5t77.5 114.5t115 77.5t141 28.5z" />
    <glyph glyph-name="trademark" unicode="&#x2122;" horiz-adv-x="897" 
d="M350 694v-65h-123v-371h-69v371h-125v65h317zM835 258h-69v315l-116 -315h-70l-115 315v-315h-70v436h93l127 -351l128 351h92v-436z" />
    <glyph glyph-name="acute" unicode="&#xb4;" horiz-adv-x="417" 
d="M230 603h-70l87 132h102z" />
    <glyph glyph-name="dieresis" unicode="&#xa8;" horiz-adv-x="417" 
d="M83 608v90h81v-90h-81zM253 608v90h81v-90h-81z" />
    <glyph glyph-name="notequal" unicode="&#x2260;" horiz-adv-x="1054" 
d="M934 477q0 29 -9.5 54t-27 43t-42 28t-54.5 10q-60 0 -96.5 -38t-36.5 -97v-137h347v-82h-347v-258h-85v477q0 48 16.5 87.5t45.5 68.5t69 45t87 16t87 -16t69 -45t45.5 -68.5t16.5 -87.5v-47h-85v47zM407 477q0 29 -9.5 54t-27 43t-42 28t-54.5 10q-60 0 -96.5 -38
t-36.5 -97v-137h347v-82h-347v-258h-85v477q0 48 16.5 87.5t45.5 68.5t69 45t87 16t87 -16t69 -45t45.5 -68.5t16.5 -87.5v-47h-85v47z" />
    <glyph glyph-name="AE" unicode="&#xc6;" horiz-adv-x="966" 
d="M463 613h-102l-141 -329h243v329zM923 694v-81h-375v-210h335v-81h-335v-240h375v-82h-460v202h-278l-87 -202h-92l302 694h615z" />
    <glyph glyph-name="Oslash" unicode="&#xd8;" horiz-adv-x="768" 
d="M644 350q0 49 -13.5 91.5t-37.5 77.5l-380 -381q34 -32 77.5 -50t93.5 -18q54 0 101 21.5t82.5 59.5t56 89t20.5 110zM556 563q-35 32 -78 49.5t-94 17.5q-54 0 -101 -21.5t-82.5 -59.5t-56 -89t-20.5 -110q0 -48 13.5 -90.5t37.5 -77.5zM728 350q0 -76 -27 -142
t-73.5 -115t-109.5 -77t-134 -28q-66 0 -125 24.5t-105 67.5l-70 -70l-40 41l71 71q-35 47 -55 104.5t-20 123.5q0 76 27 141.5t73.5 114.5t109.5 77t134 28q68 0 126.5 -23.5t104.5 -66.5l68 69l41 -40l-71 -71q35 -46 55 -104t20 -125z" />
    <glyph glyph-name="infinity" unicode="&#x221e;" horiz-adv-x="1274" 
d="M934 477q0 29 -9.5 54t-27 43t-42 28t-54.5 10q-60 0 -96.5 -38t-36.5 -97v-137h347v-82h-347v-258h-85v477q0 48 16.5 87.5t45.5 68.5t69 45t87 16t87 -16t69 -45t45.5 -68.5t16.5 -87.5v-47h-85v47zM1199 0h-84v744h84v-744zM407 477q0 29 -9.5 54t-27 43t-42 28
t-54.5 10q-60 0 -96.5 -38t-36.5 -97v-137h347v-82h-347v-258h-85v477q0 48 16.5 87.5t45.5 68.5t69 45t87 16t87 -16t69 -45t45.5 -68.5t16.5 -87.5v-47h-85v47z" />
    <glyph glyph-name="plusminus" unicode="&#xb1;" horiz-adv-x="1275" 
d="M1200 0h-84v515h84v-515zM934 477q0 29 -9.5 54t-27 43t-42 28t-54.5 10q-60 0 -96.5 -38t-36.5 -97v-137h347v-82h-347v-258h-85v477q0 48 16.5 87.5t45.5 68.5t69 45t87 16t87 -16t69 -45t45.5 -68.5t16.5 -87.5v-47h-85v47zM1200 593h-84v101h84v-101zM407 477
q0 29 -9.5 54t-27 43t-42 28t-54.5 10q-60 0 -96.5 -38t-36.5 -97v-137h347v-82h-347v-258h-85v477q0 48 16.5 87.5t45.5 68.5t69 45t87 16t87 -16t69 -45t45.5 -68.5t16.5 -87.5v-47h-85v47z" />
    <glyph glyph-name="lessequal" unicode="&#x2264;" 
d="M150 279h-100v104h100v-104z" />
    <glyph glyph-name="greaterequal" unicode="&#x2265;" 
d="M150 279h-100v104h100v-104z" />
    <glyph glyph-name="yen" unicode="&#xa5;" horiz-adv-x="603" 
d="M559 465v-57h-139l-64 -110h187v-57h-199v-241h-85v241h-200v57h188l-64 110h-139v57h106l-133 229h98l186 -329l187 329h98l-133 -229h106z" />
    <glyph glyph-name="mu" unicode="&#xb5;" 
d="M150 279h-100v104h100v-104z" />
    <glyph glyph-name="mu" unicode="&#x3bc;" 
d="M150 279h-100v104h100v-104z" />
    <glyph glyph-name="partialdiff" unicode="&#x2202;" 
d="M150 279h-100v104h100v-104z" />
    <glyph glyph-name="summation" unicode="&#x2211;" 
d="M150 279h-100v104h100v-104z" />
    <glyph glyph-name="product" unicode="&#x220f;" 
d="M150 279h-100v104h100v-104z" />
    <glyph glyph-name="pi" unicode="&#x3c0;" 
d="M150 279h-100v104h100v-104z" />
    <glyph glyph-name="integral" unicode="&#x222b;" 
d="M150 279h-100v104h100v-104z" />
    <glyph glyph-name="ordfeminine" unicode="&#xaa;" horiz-adv-x="434" 
d="M294 540q0 22 -7.5 42t-20.5 34.5t-30.5 23t-37.5 8.5t-38 -8.5t-31 -23t-20.5 -34.5t-7.5 -42q0 -23 7.5 -42.5t20.5 -33.5t31 -22.5t38 -8.5t37.5 8.5t30.5 22.5t20.5 33.5t7.5 42.5zM361 380h-66v31q-20 -19 -46 -29.5t-55 -10.5q-33 0 -62 13t-50.5 35.5t-34 53.5
t-12.5 67t12.5 67.5t34 54t50.5 35.5t62 13q29 0 55 -10.5t46 -29.5v30h66v-320z" />
    <glyph glyph-name="ordmasculine" unicode="&#xba;" horiz-adv-x="385" 
d="M193 433q20 0 37.5 8.5t30.5 23t20.5 34t7.5 41.5t-7.5 41.5t-20.5 34.5t-30.5 23.5t-37.5 8.5t-37.5 -8.5t-31 -23.5t-21 -34.5t-7.5 -41.5t7.5 -41.5t21 -34t31 -23t37.5 -8.5zM193 710q34 0 63.5 -13.5t51.5 -36.5t34.5 -54t12.5 -66t-12.5 -65.5t-34.5 -53.5
t-51.5 -36.5t-63.5 -13.5t-63.5 13.5t-51.5 36.5t-35 53.5t-13 65.5t13 66t35 54t51.5 36.5t63.5 13.5z" />
    <glyph glyph-name="Omega" unicode="&#x3a9;" 
d="M150 279h-100v104h100v-104z" />
    <glyph glyph-name="Omega" unicode="&#x2126;" 
d="M150 279h-100v104h100v-104z" />
    <glyph glyph-name="ae" unicode="&#xe6;" horiz-adv-x="1016" 
d="M467 257q0 40 -14 75t-38 61.5t-55.5 41.5t-66.5 15q-36 0 -67.5 -15t-55.5 -41t-37.5 -61.5t-13.5 -75.5q0 -41 13.5 -75.5t37.5 -60.5t55.5 -40.5t67.5 -14.5t67.5 15t55 41t37.5 60.5t14 74.5zM891 311q-8 31 -24.5 57t-38.5 44.5t-48.5 28.5t-54.5 10
q-27 0 -53.5 -9.5t-49 -27.5t-39.5 -44t-25 -59h333zM973 160q-26 -83 -89.5 -127.5t-153.5 -44.5q-58 0 -104 22t-78 60v-70h-80v68q-33 -37 -79.5 -58.5t-97.5 -21.5q-53 0 -100 20.5t-81.5 56.5t-54.5 85t-20 107t20.5 107.5t55.5 86t82 57t100 20.5q73 0 129 -36.5
t88 -96.5q32 60 88 96.5t127 36.5q50 0 97 -20t83.5 -58t58 -92t21.5 -123h-433q4 -40 20.5 -71.5t41 -53.5t54.5 -33.5t62 -11.5q55 0 93.5 25t59.5 70h90z" />
    <glyph glyph-name="oslash" unicode="&#xf8;" horiz-adv-x="589" 
d="M468 256q0 31 -8.5 58.5t-22.5 50.5l-253 -253q23 -20 51 -31.5t59 -11.5q36 0 67.5 14.5t55.5 40t37.5 59.5t13.5 73zM400 408q-23 18 -49.5 28.5t-56.5 10.5q-36 0 -67.5 -15t-55 -41t-37 -61t-13.5 -74q0 -27 7 -52.5t20 -47.5zM553 256q0 -56 -20 -104.5t-54.5 -85.5
t-82 -58t-102.5 -21q-50 0 -92.5 17.5t-76.5 47.5l-43 -43l-41 41l46 45q-25 34 -38.5 75t-13.5 86q0 56 20 105.5t55 86.5t82 58.5t102 21.5q48 0 90 -16t75 -45l48 48l41 -40l-50 -50q26 -35 40.5 -78t14.5 -91z" />
    <glyph glyph-name="questiondown" unicode="&#xbf;" horiz-adv-x="522" 
d="M46 177q0 37 10 64.5t26 48.5t35.5 36.5t37.5 28.5q19 14 35 27t27 28t17 34t6 46v27h83v-27q0 -41 -9.5 -70t-26 -51t-38 -39.5t-44.5 -35.5q-18 -14 -31.5 -26t-23.5 -25t-15 -28t-5 -35q0 -54 33.5 -85t101.5 -31q66 0 103.5 34.5t37.5 89.5h85q0 -41 -15.5 -78.5
t-45 -65.5t-71.5 -44.5t-94 -16.5t-93 15t-69 41.5t-42.5 61.5t-14.5 76zM233 694h96v-99h-96v99z" />
    <glyph glyph-name="exclamdown" unicode="&#xa1;" horiz-adv-x="271" 
d="M93 517h85v-517h-85v517zM88 694h95v-99h-95v99z" />
    <glyph glyph-name="logicalnot" unicode="&#xac;" 
d="M150 279h-100v104h100v-104z" />
    <glyph glyph-name="radical" unicode="&#x221a;" 
d="M150 279h-100v104h100v-104z" />
    <glyph glyph-name="florin" unicode="&#x192;" horiz-adv-x="453" 
d="M435 575q-22 9 -43 10.5t-39 -6t-31 -24.5t-19 -45l-12 -52h77v-61h-90l-48 -224q-10 -48 -30.5 -79.5t-48.5 -48t-63 -19.5t-73 8v85q22 -8 43 -9.5t38.5 6t31 24t19.5 45.5q7 34 15 70q7 31 14.5 68.5t15.5 73.5h-74v61h87q3 14 5.5 26t4.5 20q2 10 4 18
q10 47 30.5 78.5t49 48t63.5 19t73 -7.5v-85z" />
    <glyph glyph-name="approxequal" unicode="&#x2248;" 
d="M150 279h-100v104h100v-104z" />
    <glyph glyph-name="Delta" unicode="&#x394;" 
d="M150 279h-100v104h100v-104z" />
    <glyph glyph-name="Delta" unicode="&#x2206;" 
d="M150 279h-100v104h100v-104z" />
    <glyph glyph-name="guillemotleft" unicode="&#xab;" horiz-adv-x="423" 
d="M181 469v-89l-100 -80l100 -82v-88l-158 136v67zM293 300l100 -82v-88l-158 136v67l158 136v-89z" />
    <glyph glyph-name="guillemotright" unicode="&#xbb;" horiz-adv-x="423" 
d="M188 333v-67l-159 -136v88l100 82l-100 80v89zM400 266l-159 -136v88l100 82l-100 80v89l159 -136v-67z" />
    <glyph glyph-name="ellipsis" unicode="&#x2026;" horiz-adv-x="863" 
d="M135 0h-85v88h85v-88zM473 0h-84v88h84v-88zM813 0h-85v88h85v-88z" />
    <glyph glyph-name="nonbreakingspace" unicode="&#xa0;" horiz-adv-x="289" 
 />
    <glyph glyph-name="Agrave" unicode="&#xc0;" horiz-adv-x="627" 
d="M314 590l-113 -309h224zM172 202l-74 -202h-92l262 694h96l257 -694h-95l-73 202h-281zM255 902l88 -137h-67l-124 137h103z" />
    <glyph glyph-name="Atilde" unicode="&#xc3;" horiz-adv-x="627" 
d="M314 590l-113 -309h224zM172 202l-74 -202h-92l262 694h96l257 -694h-95l-73 202h-281zM371 778q-20 0 -39 6t-36.5 13t-34 13t-31.5 6q-19 0 -29.5 -12.5t-12.5 -30.5h-48q1 20 8 39t19.5 33.5t31 23.5t43.5 9q21 0 40.5 -6t36.5 -13.5t33 -13.5t31 -6q18 0 29 13t13 31
h48q-2 -20 -9 -39t-19.5 -33.5t-31 -23.5t-42.5 -9z" />
    <glyph glyph-name="Otilde" unicode="&#xd5;" horiz-adv-x="768" 
d="M384 70q54 0 101 21.5t82.5 59.5t56 89t20.5 110q0 60 -20 111t-55 88.5t-82.5 59t-102.5 21.5q-54 0 -101 -21.5t-82.5 -59.5t-56 -89t-20.5 -110t20.5 -110.5t56 -89t82.5 -59t101 -21.5zM384 711q72 0 135 -27.5t109.5 -76t73 -114.5t26.5 -143q0 -76 -27 -142
t-73.5 -115t-109.5 -77t-134 -28t-134 28t-109.5 77t-73.5 115t-27 142t27 141.5t73.5 114.5t109.5 77t134 28zM438 778q-20 0 -39 6t-36.5 13t-34 13t-31.5 6q-18 0 -29 -12.5t-13 -30.5h-48q1 20 8 39t19.5 33.5t31 23.5t43.5 9q21 0 40.5 -6t36.5 -13.5t33 -13.5t31 -6
q18 0 29 13t13 31h48q-2 -20 -9 -39t-19.5 -33.5t-31 -23.5t-42.5 -9z" />
    <glyph glyph-name="OE" unicode="&#x152;" horiz-adv-x="1178" 
d="M644 351q0 60 -20 111t-55 88.5t-82.5 58.5t-101.5 21t-102 -21.5t-83 -59.5t-55.5 -89t-20.5 -110t20.5 -110.5t55.5 -89t83 -59t102 -21.5t101 21.5t82 59.5t55.5 89.5t20.5 110.5zM1135 694v-81h-410v-210h374v-81h-374v-240h410v-82h-491v120q-45 -61 -111.5 -96.5
t-147.5 -35.5q-71 0 -134 28t-110 77t-74 115t-27 142t27 141.5t74 114.5t110 77t134 28q81 0 147.5 -34t111.5 -94v111h491z" />
    <glyph glyph-name="oe" unicode="&#x153;" horiz-adv-x="1016" 
d="M468 257q0 40 -13.5 75t-37.5 61t-56 41.5t-68 15.5t-67.5 -15.5t-55 -41.5t-37 -61t-13.5 -75t13.5 -74.5t37 -60.5t55 -41t67.5 -15t68 15t56 41t37.5 60.5t13.5 74.5zM892 311q-8 31 -24.5 57t-39 44.5t-49 28.5t-54.5 10q-26 0 -52.5 -9.5t-49 -27.5t-40 -44
t-25.5 -59h334zM973 160q-26 -83 -89 -127.5t-154 -44.5q-74 0 -131 36.5t-89 96.5q-30 -60 -86 -96.5t-131 -36.5q-55 0 -102 21t-81.5 57.5t-54.5 85.5t-20 105t20 105.5t54.5 86t81.5 58t102 21.5q75 0 131 -37t86 -98q32 61 87.5 98t127.5 37q50 0 97 -20t84 -58
t58.5 -92t20.5 -123h-432q4 -40 20 -71.5t40.5 -53.5t54.5 -33.5t62 -11.5q55 0 93.5 25t59.5 70h90z" />
    <glyph glyph-name="endash" unicode="&#x2013;" horiz-adv-x="631" 
d="M44 235v82h543v-82h-543z" />
    <glyph glyph-name="emdash" unicode="&#x2014;" horiz-adv-x="976" 
d="M44 235v82h889v-82h-889z" />
    <glyph glyph-name="quotedblleft" unicode="&#x201c;" horiz-adv-x="340" 
d="M142 573v-103h-100v126q0 25 8 44.5t21 32.5t30 20t34 9v-44q-24 -4 -37 -20t-13 -42v-23h57zM298 470h-100v126q0 25 8 44.5t21 32.5t30 20t34 9v-44q-24 -4 -36.5 -20t-12.5 -42v-23h56v-103z" />
    <glyph glyph-name="quotedblright" unicode="&#x201d;" horiz-adv-x="335" 
d="M138 694v-126q0 -26 -8 -45t-21.5 -32t-30 -20t-34.5 -9v44q24 4 37 20t13 42v23h-56v103h100zM294 568q0 -26 -8 -45t-21.5 -32t-30 -20t-34.5 -9v44q25 4 37.5 20t12.5 42v23h-57v103h101v-126z" />
    <glyph glyph-name="quoteleft" unicode="&#x2018;" horiz-adv-x="183" 
d="M142 470h-100v126q0 25 8 44.5t21 32.5t29.5 20t34.5 9v-44q-24 -4 -37 -20t-13 -42v-23h57v-103z" />
    <glyph glyph-name="quoteright" unicode="&#x2019;" horiz-adv-x="179" 
d="M138 568q0 -26 -8 -45t-21.5 -32t-30 -20t-34.5 -9v44q24 4 37 20t13 42v23h-56v103h100v-126z" />
    <glyph glyph-name="divide" unicode="&#xf7;" 
d="M150 279h-100v104h100v-104z" />
    <glyph glyph-name="lozenge" unicode="&#x25ca;" 
d="M150 279h-100v104h100v-104z" />
    <glyph glyph-name="ydieresis" unicode="&#xff;" horiz-adv-x="566" 
d="M497 515v-553q0 -51 -16.5 -90.5t-45.5 -67.5t-68.5 -42.5t-84.5 -14.5q-41 0 -76 11.5t-63 33.5t-47 53.5t-26 71.5h86q14 -42 45 -65t81 -23q60 0 95 36.5t35 96.5v77q-48 -51 -130 -51q-45 0 -84.5 15.5t-68.5 43.5t-45.5 67.5t-16.5 88.5v312h84v-312
q0 -58 35.5 -95.5t95.5 -37.5t95 37.5t35 95.5v312h85zM151 594v99h92v-99h-92zM320 594v99h91v-99h-91z" />
    <glyph glyph-name="Ydieresis" unicode="&#x178;" horiz-adv-x="575" 
d="M330 300v-300h-85v300l-241 394h98l186 -316l186 316h97zM161 774v100h92v-100h-92zM330 774v100h91v-100h-91z" />
    <glyph glyph-name="fraction" unicode="&#x2044;" 
d="M150 279h-100v104h100v-104z" />
    <glyph glyph-name="fraction" unicode="&#x2215;" 
d="M150 279h-100v104h100v-104z" />
    <glyph glyph-name="currency" unicode="&#xa4;" horiz-adv-x="688" 
d="M657 157q-39 -71 -106.5 -114t-151.5 -43q-51 0 -96.5 16.5t-83.5 45.5t-66.5 69t-43.5 87h-74v57h61q-3 22 -3 46v13.5t1 13.5h-59v57h68q13 51 41.5 94.5t67.5 75t86.5 49.5t100.5 18q72 0 136 -30t109 -84l-39 -81q-31 51 -86 83t-120 32q-36 0 -68.5 -12t-59.5 -33
t-47 -49.5t-32 -62.5h393l-28 -57h-378q-1 -7 -1 -13.5v-13.5q0 -26 4 -46h340l-28 -57h-295q13 -30 34 -55.5t46.5 -43.5t56 -28.5t63.5 -10.5q48 0 89 21t71 56h98z" />
    <glyph glyph-name="guilsinglleft" unicode="&#x2039;" horiz-adv-x="210" 
d="M81 300l100 -82v-88l-158 136v67l158 136v-89z" />
    <glyph glyph-name="guilsinglright" unicode="&#x203a;" horiz-adv-x="210" 
d="M188 266l-159 -136v88l100 82l-100 80v89l159 -136v-67z" />
    <glyph glyph-name="daggerdbl" unicode="&#x2021;" horiz-adv-x="370" 
d="M223 494v-94h105v-73h-105v-127h-76v127h-105v73h105v94h-105v73h105v127h76v-127h105v-73h-105z" />
    <glyph glyph-name="periodcentered" unicode="&#xb7;" 
d="M150 279h-100v104h100v-104z" />
    <glyph glyph-name="periodcentered" unicode="&#x2219;" 
d="M150 279h-100v104h100v-104z" />
    <glyph glyph-name="quotesinglbase" unicode="&#x201a;" horiz-adv-x="179" 
d="M138 -23q0 -26 -8 -45t-21.5 -32t-30 -20t-34.5 -9v44q24 4 37 20t13 42v23h-56v103h100v-126z" />
    <glyph glyph-name="quotedblbase" unicode="&#x201e;" horiz-adv-x="335" 
d="M138 103v-126q0 -26 -8 -45t-21.5 -32t-30 -20t-34.5 -9v44q24 4 37 20t13 42v23h-56v103h100zM294 -23q0 -26 -8 -45t-21.5 -32t-30 -20t-34.5 -9v44q25 4 37.5 20t12.5 42v23h-57v103h101v-126z" />
    <glyph glyph-name="perthousand" unicode="&#x2030;" horiz-adv-x="1206" 
d="M617 265q-19 0 -36 -7.5t-29.5 -20.5t-20 -31t-7.5 -38t7.5 -37.5t20 -31t29.5 -21t36 -7.5t36 7.5t29.5 21t20 31t7.5 37.5t-7.5 38t-20 31t-29.5 20.5t-36 7.5zM1013 265q-20 0 -36.5 -7.5t-29.5 -20.5t-20 -31t-7 -38t7 -37.5t20 -31t29.5 -21t36.5 -7.5q19 0 36 7.5
t29.5 21t20 31t7.5 37.5t-7.5 38t-20 31t-29.5 20.5t-36 7.5zM192 429q19 0 36 7.5t30 20.5t20 31t7 38t-7 37.5t-20 31t-30 21t-36 7.5t-36 -7.5t-29.5 -21t-19.5 -31t-7 -37.5t7 -38t19.5 -31t29.5 -20.5t36 -7.5zM617 0q-35 0 -65.5 13.5t-53.5 36t-36 53t-13 65.5
t13 65.5t36 53.5t53.5 36.5t65.5 13.5q34 0 65 -13.5t53.5 -36.5t36 -53.5t13.5 -65.5t-13.5 -65.5t-36 -53t-53.5 -36t-65 -13.5zM1013 0q-35 0 -65.5 13.5t-53.5 36t-36.5 53t-13.5 65.5t13.5 65.5t36.5 53.5t53.5 36.5t65.5 13.5q34 0 65 -13.5t53.5 -36.5t36 -53.5
t13.5 -65.5t-13.5 -65.5t-36 -53t-53.5 -36t-65 -13.5zM570 694h69l-408 -706h-68zM192 694q35 0 65.5 -13t53.5 -36t36.5 -53.5t13.5 -65.5t-13.5 -65.5t-36.5 -53.5t-53.5 -36t-65.5 -13t-65.5 13t-53 36t-36 53.5t-13.5 65.5t13.5 65.5t36 53.5t53 36t65.5 13z" />
    <glyph glyph-name="Acircumflex" unicode="&#xc2;" horiz-adv-x="627" 
d="M314 590l-113 -309h224zM172 202l-74 -202h-92l262 694h96l257 -694h-95l-73 202h-281zM309 855l-64 -91h-77l104 142h73l105 -142h-77z" />
    <glyph glyph-name="Ecircumflex" unicode="&#xca;" horiz-adv-x="620" 
d="M577 694v-81h-411v-210h371v-81h-371v-240h411v-82h-496v694h496zM330 855l-64 -91h-77l104 142h74l105 -142h-77z" />
    <glyph glyph-name="Aacute" unicode="&#xc1;" horiz-adv-x="627" 
d="M314 590l-113 -309h224zM172 202l-74 -202h-92l262 694h96l257 -694h-95l-73 202h-281zM355 765h-67l87 137h105z" />
    <glyph glyph-name="Edieresis" unicode="&#xcb;" horiz-adv-x="620" 
d="M577 694v-81h-411v-210h371v-81h-371v-240h411v-82h-496v694h496zM199 774v100h92v-100h-92zM368 774v100h92v-100h-92z" />
    <glyph glyph-name="Egrave" unicode="&#xc8;" horiz-adv-x="620" 
d="M577 694v-81h-411v-210h371v-81h-371v-240h411v-82h-496v694h496zM288 902l87 -137h-66l-125 137h104z" />
    <glyph glyph-name="Iacute" unicode="&#xcd;" horiz-adv-x="255" 
d="M170 0h-85v694h85v-694zM160 765h-67l87 137h105z" />
    <glyph glyph-name="Icircumflex" unicode="&#xce;" horiz-adv-x="255" 
d="M170 0h-85v694h85v-694zM128 855l-65 -91h-77l104 142h74l105 -142h-77z" />
    <glyph glyph-name="Idieresis" unicode="&#xcf;" horiz-adv-x="255" 
d="M170 0h-85v694h85v-694zM-3 774v100h92v-100h-92zM166 774v100h92v-100h-92z" />
    <glyph glyph-name="Igrave" unicode="&#xcc;" horiz-adv-x="255" 
d="M170 0h-85v694h85v-694zM68 902l87 -137h-67l-124 137h104z" />
    <glyph glyph-name="Oacute" unicode="&#xd3;" horiz-adv-x="768" 
d="M384 70q54 0 101 21.5t82.5 59.5t56 89t20.5 110q0 60 -20 111t-55 88.5t-82.5 59t-102.5 21.5q-54 0 -101 -21.5t-82.5 -59.5t-56 -89t-20.5 -110t20.5 -110.5t56 -89t82.5 -59t101 -21.5zM384 711q72 0 135 -27.5t109.5 -76t73 -114.5t26.5 -143q0 -76 -27 -142
t-73.5 -115t-109.5 -77t-134 -28t-134 28t-109.5 77t-73.5 115t-27 142t27 141.5t73.5 114.5t109.5 77t134 28zM423 765h-66l87 137h104z" />
    <glyph glyph-name="Ocircumflex" unicode="&#xd4;" horiz-adv-x="768" 
d="M384 70q54 0 101 21.5t82.5 59.5t56 89t20.5 110q0 60 -20 111t-55 88.5t-82.5 59t-102.5 21.5q-54 0 -101 -21.5t-82.5 -59.5t-56 -89t-20.5 -110t20.5 -110.5t56 -89t82.5 -59t101 -21.5zM384 711q72 0 135 -27.5t109.5 -76t73 -114.5t26.5 -143q0 -76 -27 -142
t-73.5 -115t-109.5 -77t-134 -28t-134 28t-109.5 77t-73.5 115t-27 142t27 141.5t73.5 114.5t109.5 77t134 28zM384 855l-64 -91h-77l104 142h73l105 -142h-77z" />
    <glyph glyph-name="Ograve" unicode="&#xd2;" horiz-adv-x="768" 
d="M384 70q54 0 101 21.5t82.5 59.5t56 89t20.5 110q0 60 -20 111t-55 88.5t-82.5 59t-102.5 21.5q-54 0 -101 -21.5t-82.5 -59.5t-56 -89t-20.5 -110t20.5 -110.5t56 -89t82.5 -59t101 -21.5zM384 711q72 0 135 -27.5t109.5 -76t73 -114.5t26.5 -143q0 -76 -27 -142
t-73.5 -115t-109.5 -77t-134 -28t-134 28t-109.5 77t-73.5 115t-27 142t27 141.5t73.5 114.5t109.5 77t134 28zM327 902l88 -137h-67l-125 137h104z" />
    <glyph glyph-name="Uacute" unicode="&#xda;" horiz-adv-x="670" 
d="M153 249q0 -39 12 -71.5t35.5 -56.5t57 -37.5t77.5 -13.5t77.5 13.5t56.5 37.5t35 56.5t12 71.5v445h85v-445q0 -58 -19.5 -106t-54.5 -82.5t-84 -53.5t-108 -19q-60 0 -109 19t-84 53.5t-54 82.5t-19 106v445h84v-445zM361 765h-66l87 137h104z" />
    <glyph glyph-name="Ucircumflex" unicode="&#xdb;" horiz-adv-x="670" 
d="M153 249q0 -39 12 -71.5t35.5 -56.5t57 -37.5t77.5 -13.5t77.5 13.5t56.5 37.5t35 56.5t12 71.5v445h85v-445q0 -58 -19.5 -106t-54.5 -82.5t-84 -53.5t-108 -19q-60 0 -109 19t-84 53.5t-54 82.5t-19 106v445h84v-445zM338 855l-64 -91h-77l104 142h74l104 -142h-77z
" />
    <glyph glyph-name="Ugrave" unicode="&#xd9;" horiz-adv-x="670" 
d="M153 249q0 -39 12 -71.5t35.5 -56.5t57 -37.5t77.5 -13.5t77.5 13.5t56.5 37.5t35 56.5t12 71.5v445h85v-445q0 -58 -19.5 -106t-54.5 -82.5t-84 -53.5t-108 -19q-60 0 -109 19t-84 53.5t-54 82.5t-19 106v445h84v-445zM289 902l87 -137h-66l-125 137h104z" />
    <glyph glyph-name="dotlessi" unicode="&#x131;" horiz-adv-x="233" 
d="M159 0h-85v515h85v-515z" />
    <glyph glyph-name="circumflex" unicode="&#x2c6;" horiz-adv-x="417" 
d="M144 603h-72l104 127h64l105 -127h-73l-64 81z" />
    <glyph glyph-name="tilde" unicode="&#x2dc;" horiz-adv-x="417" 
d="M273 611q-20 0 -39 6t-36.5 13.5t-34 13.5t-31.5 6q-18 0 -29 -13t-13 -31h-48q1 20 8 39t19.5 34t31 24t43.5 9q21 0 40.5 -6t36.5 -13.5t33 -13.5t31 -6q18 0 29 12.5t13 30.5h48q-2 -20 -9 -39t-19.5 -33.5t-31 -23.5t-42.5 -9z" />
    <glyph glyph-name="macron" unicode="&#xaf;" horiz-adv-x="391" 
d="M349 618h-307v60h307v-60z" />
    <glyph glyph-name="macron" unicode="&#x2c9;" horiz-adv-x="391" 
d="M349 618h-307v60h307v-60z" />
    <glyph glyph-name="breve" unicode="&#x2d8;" horiz-adv-x="388" 
d="M346 720q-2 -28 -13.5 -51.5t-31.5 -41t-47 -27.5t-60 -10t-60 10t-47 27.5t-31.5 41t-13.5 51.5h47q11 -34 37 -53t68 -19q51 0 76 19t33 53h43z" />
    <glyph glyph-name="dotaccent" unicode="&#x2d9;" horiz-adv-x="175" 
d="M42 594v100h91v-100h-91z" />
    <glyph glyph-name="ring" unicode="&#x2da;" horiz-adv-x="275" 
d="M188 863q0 22 -15 37t-36 15t-36 -15t-15 -37q0 -21 15 -36t36 -15t36 15t15 36zM137 768q-20 0 -37.5 7.5t-30 20.5t-20 30t-7.5 37q0 40 27.5 68t67.5 28t68 -28t28 -68q0 -20 -7.5 -37t-20.5 -30t-30.5 -20.5t-37.5 -7.5z" />
    <glyph glyph-name="cedilla" unicode="&#xb8;" horiz-adv-x="252" 
d="M60 -78l38 78h45l-44 -70l-1 7q16 10 35.5 11t36.5 -5.5t28.5 -22t11.5 -38.5q0 -34 -22 -52t-58 -18q-23 0 -47.5 11t-40.5 31l12 22q14 -14 33.5 -20.5t38.5 -6.5q17 0 29.5 8t12.5 23q0 14 -10.5 24t-29.5 10q-9 0 -18.5 -2.5t-17.5 -10.5z" />
    <glyph glyph-name="hungarumlaut" unicode="&#x2dd;" horiz-adv-x="416" 
d="M109 584h-67l66 136h104zM271 584h-67l66 136h104z" />
    <glyph glyph-name="ogonek" unicode="&#x2db;" horiz-adv-x="225" 
d="M183 -170q-18 -12 -37.5 -17t-38 -3t-34 10.5t-23.5 24.5q-8 15 -8.5 34.5t8 40.5t27.5 42t49 38h55q-26 -16 -44.5 -34t-29 -35.5t-13 -33.5t3.5 -27q9 -17 35 -18.5t50 13.5v-35z" />
    <glyph glyph-name="caron" unicode="&#x2c7;" horiz-adv-x="366" 
d="M220 583h-74l-104 143h77l64 -91l64 91h77z" />
    <glyph glyph-name="lslash" unicode="&#x142;" horiz-adv-x="277" 
d="M181 339v-339h-85v288l-86 -53v67l86 52v340h85v-289l86 52v-67z" />
    <glyph glyph-name="Scaron" unicode="&#x160;" horiz-adv-x="598" 
d="M560 197q0 -51 -19 -90t-53.5 -65.5t-83 -40t-106.5 -13.5q-60 0 -109 16.5t-83.5 47t-53.5 73.5t-19 95h88q0 -70 49 -110.5t128 -40.5q90 0 133.5 34.5t43.5 93.5q0 22 -6.5 40.5t-25.5 33.5t-54.5 27.5t-92.5 22.5q-58 10 -103 25t-76 37.5t-47 54.5t-16 77t17 81
t48.5 61.5t76.5 39.5t100 14q57 0 102.5 -15t77.5 -43t49 -68t17 -90h-86q0 61 -40.5 98t-118.5 37q-81 0 -119 -31.5t-38 -80.5q0 -23 7 -40t26.5 -30.5t53.5 -24.5t87 -21q57 -11 102.5 -25.5t77.5 -38t49 -57.5t17 -84zM334 775h-74l-104 143h77l64 -91l64 91h77z" />
    <glyph glyph-name="scaron" unicode="&#x161;" horiz-adv-x="503" 
d="M472 155q0 -39 -15.5 -70t-43.5 -52.5t-67 -33.5t-85 -12q-47 0 -87 12t-70 35t-49 55.5t-24 73.5h86q8 -45 48 -71t96 -26q60 0 94.5 25t34.5 59q0 13 -4 25t-18.5 22t-42.5 18.5t-75 14.5q-47 7 -84 16.5t-63 26t-40 41.5t-14 61q0 28 12 55t37 49t63 35.5t90 13.5
q90 0 146 -42.5t64 -118.5h-86q-9 42 -42.5 62.5t-81.5 20.5q-51 0 -84 -21t-33 -51q0 -14 6 -23.5t21 -17t40 -13.5t63 -12q43 -7 80.5 -16t66 -25.5t45 -44t16.5 -71.5zM297 583h-74l-104 143h77l64 -91l64 91h77z" />
    <glyph glyph-name="Yacute" unicode="&#xdd;" horiz-adv-x="575" 
d="M324 747h-67l87 137h105zM330 300v-300h-85v300l-241 394h98l186 -316l186 316h97z" />
    <glyph glyph-name="yacute" unicode="&#xfd;" horiz-adv-x="566" 
d="M290 569h-66l87 136h104zM497 515v-553q0 -51 -16.5 -90.5t-45.5 -67.5t-68.5 -42.5t-84.5 -14.5q-41 0 -76 11.5t-63 33.5t-47 53.5t-26 71.5h86q14 -42 45 -65t81 -23q60 0 95 36.5t35 96.5v77q-48 -51 -130 -51q-45 0 -84.5 15.5t-68.5 43.5t-45.5 67.5t-16.5 88.5
v312h84v-312q0 -58 35.5 -95.5t95.5 -37.5t95 37.5t35 95.5v312h85z" />
    <glyph glyph-name="Thorn" unicode="&#xde;" horiz-adv-x="622" 
d="M511 387q0 68 -38.5 98t-99.5 30h-208v-257h208q61 0 99.5 30t38.5 99zM596 387q0 -46 -15 -84.5t-43.5 -66.5t-70 -43.5t-94.5 -15.5h-208v-177h-84v694h84v-97h208q53 0 94.5 -15.5t70 -43.5t43.5 -66.5t15 -84.5z" />
    <glyph glyph-name="thorn" unicode="&#xfe;" horiz-adv-x="626" 
d="M505 259q0 39 -13.5 74t-36.5 61t-54.5 41t-67.5 15t-68 -15t-56 -41t-38 -61t-14 -74q0 -40 14 -75t38 -61.5t56 -41.5t68 -15t67.5 15t54.5 41.5t36.5 61.5t13.5 75zM590 259q0 -56 -19.5 -105.5t-54 -86.5t-81.5 -58t-102 -21q-57 0 -102.5 26t-73.5 64v-307h-84v923
h84v-257q28 38 73.5 64.5t102.5 26.5q55 0 102 -21t81.5 -58t54 -86t19.5 -104z" />
    <glyph glyph-name="Zcaron" unicode="&#x17d;" horiz-adv-x="582" 
d="M334 775h-74l-104 143h77l64 -91l64 91h77zM555 0h-528v76l421 537h-408v81h513v-78l-418 -534h420v-82z" />
    <glyph glyph-name="zcaron" unicode="&#x17e;" horiz-adv-x="470" 
d="M285 583h-74l-104 143h77l64 -91l64 91h77zM443 0h-416v71l296 363h-288v81h399v-77l-293 -356h302v-82z" />
    <glyph glyph-name="onehalf" unicode="&#xbd;" horiz-adv-x="753" 
d="M698 64v-64h-297v33q0 37 11.5 64.5t30 48.5t43.5 37t52 31q33 18 53 31t31 25t14.5 23.5t3.5 25.5q0 12 -4 24.5t-13 22.5t-24 16t-36 6q-44 0 -66 -28t-22 -66h-66q0 32 10.5 60t30 49t47.5 33.5t64 12.5q37 0 64.5 -11.5t45.5 -30t27 -41.5t9 -47q0 -31 -10 -54
t-28.5 -41t-43.5 -33.5t-55 -31.5q-42 -23 -67 -44t-31 -51h226zM120 -12h-62l407 706h63zM19 608v41q29 1 47.5 11t20.5 34h62v-436h-66v350h-64z" />
    <glyph glyph-name="onequarter" unicode="&#xbc;" horiz-adv-x="678" 
d="M530 335l-128 -177h128v177zM596 95v-95h-66v95h-201v65l200 276h67v-278h36v-63h-36zM119 -12h-62l408 706h62zM19 608v41q28 1 46.5 11t20.5 34h62v-436h-66v350h-63z" />
    <glyph glyph-name="onesuperior" unicode="&#xb9;" horiz-adv-x="230" 
d="M149 258h-66v350h-64v41q28 1 47 11t21 34h62v-436z" />
    <glyph glyph-name="threequarters" unicode="&#xbe;" horiz-adv-x="833" 
d="M700 335l-128 -177h128v177zM766 95v-95h-66v95h-200v65l200 276h66v-278h36v-63h-36zM635 694h62l-407 -706h-62zM351 389q0 -31 -12 -56.5t-33 -44t-50 -28.5t-63 -10q-32 0 -59.5 8.5t-49 25.5t-34.5 43t-15 61h67q0 -14 5.5 -28t16 -25t27.5 -17.5t41 -6.5q25 0 43 7
t29 18t16 24.5t5 26.5q0 12 -4 25t-13 23.5t-25 17t-40 6.5h-37v62h28q43 0 59.5 17.5t16.5 40.5q0 27 -18 47t-56 20q-37 0 -59.5 -22.5t-22.5 -56.5h-66q0 28 10 53.5t29 45t46.5 30.5t62.5 11t61 -10t43.5 -27.5t26.5 -40t9 -46.5q0 -29 -11.5 -50.5t-36.5 -35.5
q30 -15 46.5 -41.5t16.5 -66.5z" />
    <glyph glyph-name="threesuperior" unicode="&#xb3;" horiz-adv-x="393" 
d="M352 389q0 -31 -12 -56.5t-33.5 -44t-50.5 -28.5t-63 -10q-32 0 -59.5 8.5t-48.5 25.5t-34.5 43t-15.5 61h67q0 -14 5.5 -28t16 -25t27.5 -17.5t41 -6.5q25 0 43 7t29 18t16 24.5t5 26.5q0 12 -3.5 25t-13 23.5t-25.5 17t-40 6.5h-36v62h27q43 0 59.5 17.5t16.5 40.5
q0 27 -17.5 47t-55.5 20t-60.5 -22.5t-22.5 -56.5h-66q0 28 10 53.5t29 45t46.5 30.5t62.5 11t61 -10t43.5 -27.5t26.5 -40t9 -46.5q0 -29 -11.5 -50.5t-36.5 -35.5q30 -15 47 -41.5t17 -66.5z" />
    <glyph glyph-name="twosuperior" unicode="&#xb2;" horiz-adv-x="376" 
d="M321 321v-63h-296v33q0 37 11.5 64.5t30.5 48.5t44 37t52 31q33 18 53 31t31 25t14.5 23.5t3.5 25.5q0 25 -17.5 46.5t-60.5 21.5q-45 0 -66.5 -27.5t-21.5 -65.5h-66q0 32 10.5 60t30 49t47.5 33.5t64 12.5q37 0 64.5 -11.5t45.5 -30t26.5 -42t8.5 -46.5q0 -31 -10 -54
t-28 -41t-43 -33.5t-55 -31.5q-42 -23 -67 -44.5t-31 -51.5h225z" />
    <glyph glyph-name="multiply" unicode="&#xd7;" horiz-adv-x="511" 
d="M256 195l-183 -183l-58 58l183 183l-183 182l58 58l183 -183l183 183l57 -58l-182 -182l182 -183l-57 -58z" />
    <glyph glyph-name="Lslash" unicode="&#x141;" horiz-adv-x="564" 
d="M539 0h-442v288l-87 -53v67l87 52v340h85v-289l168 102v-67l-168 -101v-257h357v-82z" />
    <glyph glyph-name="apple" horiz-adv-x="904" 
d="M761 138q-42 26 -86 42q-19 -49 -45.5 -87t-56.5 -62q54 11 102 38t86 69zM532 31q35 19 67 59t54 97q-28 8 -58.5 12.5t-62.5 6.5v-175zM704 336q-1 -37 -6.5 -70t-14.5 -64q25 -8 48 -20t45 -26q28 36 44.5 81t18.5 99h-135zM532 230q70 -3 128 -21q9 29 14.5 60.5
t6.5 66.5h-149v-106zM681 359q-1 35 -6.5 66t-14.5 60q-61 -17 -128 -20v-106h149zM683 492q9 -30 14.5 -63.5t6.5 -69.5h135q-2 54 -18.5 98.5t-44.5 81.5q-45 -30 -93 -47zM532 488q32 2 62.5 7t58.5 13q-22 57 -54 96.5t-67 59.5v-176zM573 664q30 -24 56.5 -62t45.5 -87
q44 16 86 42q-38 42 -86 69t-102 38zM479 694v-125h-92q-49 0 -88.5 -17.5t-67.5 -48t-43 -71t-15 -85.5t15 -85.5t43 -71t67.5 -48t88.5 -17.5h92v-125h-92q-79 0 -143 28t-109 75.5t-69.5 110.5t-24.5 133t24.5 133t69.5 110.5t109 75.5t143 28h92zM863 347
q0 -79 -30 -142t-78.5 -108t-110 -69.5t-124.5 -26.5l-12 -1v682v13l12 -1q63 -2 124.5 -26.5t110 -69.5t78.5 -108.5t30 -142.5z" />
    <glyph glyph-name="Eth" unicode="&#xd0;" horiz-adv-x="692" 
d="M566 348q0 71 -18 121.5t-48.5 82.5t-72 46.5t-88.5 14.5h-173v-185h207v-82h-207v-264h173q48 0 89 15.5t72 47.5t48.5 82.5t17.5 120.5zM653 348q0 -81 -22 -145.5t-63 -109.5t-99 -69t-130 -24h-258v346h-64v82h64v266h258q72 0 130 -24t99 -68.5t63 -108.5t22 -145z
" />
    <glyph glyph-name="eth" unicode="&#xf0;" horiz-adv-x="583" 
d="M291 -17q-54 0 -101 21t-81 57t-53.5 84t-19.5 103t19.5 103.5t53.5 84.5t81 57t101 21q32 0 58.5 -8t49.5 -23q-46 71 -108 125l-67 -49l-46 29l74 53q-42 32 -82 54l69 51q20 -12 39 -26.5t39 -30.5l57 43l47 -28l-67 -49q40 -39 75 -84.5t60.5 -97.5t40.5 -108.5
t15 -116.5q0 -55 -19.5 -103t-53.5 -84t-80.5 -57t-100.5 -21zM461 248q0 39 -13.5 73.5t-36.5 60t-54 40.5t-66 15t-66.5 -15t-54.5 -40.5t-36.5 -60t-13.5 -73.5t13.5 -73.5t36.5 -60t54.5 -40t66.5 -14.5t66 14.5t54 40t36.5 60t13.5 73.5z" />
  </font>
</defs>
</svg>
